<?xml version="1.0" encoding="UTF-8" standalone="no"?>
<!-- Created with Inkscape (http://www.inkscape.org/) -->

<svg
   xmlns:dc="http://purl.org/dc/elements/1.1/"
   xmlns:cc="http://creativecommons.org/ns#"
   xmlns:rdf="http://www.w3.org/1999/02/22-rdf-syntax-ns#"
   xmlns:svg="http://www.w3.org/2000/svg"
   xmlns="http://www.w3.org/2000/svg"
   xmlns:sodipodi="http://sodipodi.sourceforge.net/DTD/sodipodi-0.dtd"
   xmlns:inkscape="http://www.inkscape.org/namespaces/inkscape"
   width="1134"
   height="1700"
   viewBox="0 0 300.03749 449.79166"
   version="1.1"
   id="svg8"
   inkscape:version="0.92.3 (2405546, 2018-03-11)"
   sodipodi:docname="27-ura.svg"
   inkscape:export-filename="/home/txopi/Dokumentuak/irudiak/LaPiKo/kamisetak/Ez-dago-hodeirik/Ez dago hodeirik2.png"
   inkscape:export-xdpi="96"
   inkscape:export-ydpi="96">
  <defs
     id="defs2" />
  <sodipodi:namedview
     id="base"
     pagecolor="#0040aa"
     bordercolor="#666666"
     borderopacity="1.0"
     inkscape:pageopacity="0"
     inkscape:pageshadow="2"
     inkscape:zoom="0.31294118"
     inkscape:cx="1123.015"
     inkscape:cy="850"
     inkscape:document-units="mm"
     inkscape:current-layer="layer1"
     showgrid="false"
     inkscape:window-width="1299"
     inkscape:window-height="713"
     inkscape:window-x="67"
     inkscape:window-y="27"
     inkscape:window-maximized="1"
     fit-margin-top="0"
     fit-margin-left="0"
     fit-margin-right="0"
     fit-margin-bottom="0"
     showguides="true"
     units="px"
     inkscape:measure-start="0,0"
     inkscape:measure-end="0,0" />
  <metadata
     id="metadata5">
    <rdf:RDF>
      <cc:Work
         rdf:about="">
        <dc:format>image/svg+xml</dc:format>
        <dc:type
           rdf:resource="http://purl.org/dc/dcmitype/StillImage" />
        <dc:title></dc:title>
      </cc:Work>
    </rdf:RDF>
  </metadata>
  <g
     inkscape:label="Capa 1"
     inkscape:groupmode="layer"
     id="layer1"
     transform="translate(-24.982666,247.32069)">
    <rect
       style="opacity:1;fill:#ffff00;fill-opacity:0;stroke:none;stroke-width:2.75349474;stroke-linecap:round;stroke-linejoin:round;stroke-miterlimit:4;stroke-dasharray:none;stroke-dashoffset:0;stroke-opacity:1"
       id="rect516"
       width="290.09738"
       height="83.803421"
       x="29.959089"
       y="-187.9189"
       inkscape:export-xdpi="199.91031"
       inkscape:export-ydpi="199.91031" />
    <g
       id="g909"
       transform="matrix(2.3864997,0,0,2.3864997,-235.02384,202.18454)"
       style="fill:#86edff;fill-opacity:1">
      <path
         style="fill:#86edff;fill-opacity:1;stroke:none;stroke-width:0.26458332px;stroke-linecap:butt;stroke-linejoin:miter;stroke-opacity:1"
         d="m 148.87822,-157.80167 -0.002,18.05233 c -0.0229,0.93222 -0.49129,1.40017 -1.41071,1.39684 l -20.66672,-0.003 c -1.00023,0.009 -1.43911,-0.35279 -1.43888,-1.4265 l -0.005,-18.01967 h -4.5 l 0.0444,18.56932 c 0.0294,2.8261 2.62014,5.42944 5.62209,5.42726 l 20.70647,-0.005 c 3.37676,-0.001 6.10863,-2.33053 6.13493,-5.8531 l 0.0153,-18.13848 z"
         id="path876"
         inkscape:connector-curvature="0"
         sodipodi:nodetypes="ccccccccccccc" />
      <path
         style="fill:#86edff;fill-opacity:1;stroke:none;stroke-width:0.26458332px;stroke-linecap:butt;stroke-linejoin:miter;stroke-opacity:1"
         d="m 156.03807,-133.80167 h 4.56929 l 0.003,-19.54919 22.19881,-0.008 c 0.93222,0.0229 1.40017,0.49129 1.39684,1.41071 l -0.003,2.88474 c 0.009,1.00023 -0.35279,1.38586 -1.4265,1.38563 l -19.99767,0.004 v 4.5 l 16.493,9.36019 9.30507,0.0115 -16.47215,-9.34118 11.2214,-0.0206 c 2.8261,-0.0294 5.42944,-2.62014 5.42726,-5.62209 l -0.005,-2.92449 c -0.001,-3.37676 -2.33053,-6.10863 -5.8531,-6.13493 l -26.86093,-3.9e-4 z"
         id="path892"
         inkscape:connector-curvature="0"
         sodipodi:nodetypes="cccccccccccccccccc" />
      <path
         sodipodi:nodetypes="cccccccc"
         inkscape:connector-curvature="0"
         id="path866"
         d="m 190.26629,-133.80167 14.37726,-24 h 4.45493 l 14.40736,24 h -5.33241 l -11.29447,-18.82136 -11.2907,18.82136 z"
         style="fill:#86edff;fill-opacity:1;stroke:none;stroke-width:0.26458332px;stroke-linecap:butt;stroke-linejoin:miter;stroke-opacity:1" />
    </g>
  </g>
</svg>
