<?xml version="1.0" encoding="UTF-8" standalone="no"?>
<!-- Created with Inkscape (http://www.inkscape.org/) -->

<svg
   xmlns:dc="http://purl.org/dc/elements/1.1/"
   xmlns:cc="http://creativecommons.org/ns#"
   xmlns:rdf="http://www.w3.org/1999/02/22-rdf-syntax-ns#"
   xmlns:svg="http://www.w3.org/2000/svg"
   xmlns="http://www.w3.org/2000/svg"
   xmlns:sodipodi="http://sodipodi.sourceforge.net/DTD/sodipodi-0.dtd"
   xmlns:inkscape="http://www.inkscape.org/namespaces/inkscape"
   width="1134"
   height="1700"
   viewBox="0 0 300.03749 449.79166"
   version="1.1"
   id="svg8"
   inkscape:version="0.92.3 (2405546, 2018-03-11)"
   sodipodi:docname="19-ikurringrama.svg"
   inkscape:export-filename="/home/txopi/Dokumentuak/irudiak/LaPiKo/kamisetak/Ez-dago-hodeirik/Ez dago hodeirik2.png"
   inkscape:export-xdpi="96"
   inkscape:export-ydpi="96">
  <defs
     id="defs2" />
  <sodipodi:namedview
     id="base"
     pagecolor="#000000"
     bordercolor="#666666"
     borderopacity="1.0"
     inkscape:pageopacity="0"
     inkscape:pageshadow="2"
     inkscape:zoom="0.48636974"
     inkscape:cx="567"
     inkscape:cy="1074.8348"
     inkscape:document-units="mm"
     inkscape:current-layer="layer1"
     showgrid="false"
     inkscape:window-width="1299"
     inkscape:window-height="713"
     inkscape:window-x="67"
     inkscape:window-y="27"
     inkscape:window-maximized="1"
     fit-margin-top="0"
     fit-margin-left="0"
     fit-margin-right="0"
     fit-margin-bottom="0"
     showguides="true"
     units="px" />
  <metadata
     id="metadata5">
    <rdf:RDF>
      <cc:Work
         rdf:about="">
        <dc:format>image/svg+xml</dc:format>
        <dc:type
           rdf:resource="http://purl.org/dc/dcmitype/StillImage" />
        <dc:title></dc:title>
      </cc:Work>
    </rdf:RDF>
  </metadata>
  <g
     inkscape:label="Capa 1"
     inkscape:groupmode="layer"
     id="layer1"
     transform="translate(-24.982666,247.32069)">
    <rect
       style="opacity:1;fill:#ffff00;fill-opacity:0;stroke:none;stroke-width:2.97201324;stroke-linecap:round;stroke-linejoin:round;stroke-miterlimit:4;stroke-dasharray:none;stroke-dashoffset:0;stroke-opacity:1"
       id="rect516"
       width="250.45255"
       height="113.08712"
       x="47.253757"
       y="-191.99234"
       inkscape:export-xdpi="199.91031"
       inkscape:export-ydpi="199.91031" />
    <path
       style="fill:none;stroke:#ff0000;stroke-width:1.53014219;stroke-linecap:round;stroke-linejoin:round;stroke-miterlimit:4;stroke-dasharray:none;stroke-opacity:1"
       d="m 53.550577,-122.96708 9.263059,0.0865 c 4.3053,0.0289 6.193599,-6.08621 8.979394,-6.14388 1.927038,-0.0402 4.318456,6.07245 6.454704,6.05743 h 5.80008 c 1.964556,-0.14201 1.870986,1.0938 2.993586,4.50006 l 2.9936,-46.5569 6.08052,59.45035 c 5.51295,-18.42813 4.83991,-15.55012 12.4419,-15.66278 12.84555,-25.50532 9.00551,-1.57079 14.21631,-1.64428 l 10.10663,-0.0865"
       id="path896"
       inkscape:connector-curvature="0"
       sodipodi:nodetypes="ccccccccccc" />
    <path
       sodipodi:nodetypes="ccccccccccc"
       inkscape:connector-curvature="0"
       id="path902"
       d="m 132.92561,-122.96708 9.26306,0.0865 c 4.3053,0.0289 6.1936,-6.08621 8.9794,-6.14388 1.92704,-0.0402 4.31846,6.07245 6.45471,6.05743 h 5.80008 c 1.96456,-0.14201 1.87099,1.0938 2.99359,4.50006 l 2.9936,-46.5569 6.08052,59.45035 c 5.51295,-18.42813 4.83991,-15.55012 12.4419,-15.66278 12.84555,-25.50532 9.00551,-1.57079 14.21631,-1.64428 l 10.10663,-0.0865"
       style="fill:none;stroke:#ffffff;stroke-width:1.53014219;stroke-linecap:round;stroke-linejoin:round;stroke-miterlimit:4;stroke-dasharray:none;stroke-opacity:1" />
    <path
       style="fill:none;stroke:#00ff00;stroke-width:1.53014219;stroke-linecap:round;stroke-linejoin:round;stroke-miterlimit:4;stroke-dasharray:none;stroke-opacity:1"
       d="m 212.30066,-122.96708 9.26306,0.0865 c 4.3053,0.0289 6.1936,-6.08621 8.9794,-6.14388 1.92704,-0.0402 4.31846,6.07245 6.45471,6.05743 h 5.80008 c 1.96456,-0.14201 1.87099,1.0938 2.99359,4.50006 l 2.9936,-46.5569 6.08052,59.45035 c 5.51295,-18.42813 4.83991,-15.55012 12.4419,-15.66278 12.84555,-25.50532 9.00551,-1.57079 14.21631,-1.64428 l 10.10663,-0.0865"
       id="path904"
       inkscape:connector-curvature="0"
       sodipodi:nodetypes="ccccccccccc" />
  </g>
</svg>
