<?xml version="1.0" encoding="UTF-8" standalone="no"?>
<!-- Created with Inkscape (http://www.inkscape.org/) -->

<svg
   xmlns:dc="http://purl.org/dc/elements/1.1/"
   xmlns:cc="http://creativecommons.org/ns#"
   xmlns:rdf="http://www.w3.org/1999/02/22-rdf-syntax-ns#"
   xmlns:svg="http://www.w3.org/2000/svg"
   xmlns="http://www.w3.org/2000/svg"
   xmlns:sodipodi="http://sodipodi.sourceforge.net/DTD/sodipodi-0.dtd"
   xmlns:inkscape="http://www.inkscape.org/namespaces/inkscape"
   width="1134"
   height="1700"
   viewBox="0 0 300.03749 449.79166"
   version="1.1"
   id="svg8"
   inkscape:version="0.92.3 (2405546, 2018-03-11)"
   sodipodi:docname="03-natura.svg"
   inkscape:export-filename="/home/txopi/Dokumentuak/sasiburu/kamisetak/03-natura/03-natura.png"
   inkscape:export-xdpi="200.04005"
   inkscape:export-ydpi="200.04005">
  <defs
     id="defs2" />
  <sodipodi:namedview
     id="base"
     pagecolor="#000000"
     bordercolor="#666666"
     borderopacity="1.0"
     inkscape:pageopacity="0"
     inkscape:pageshadow="2"
     inkscape:zoom="0.32470588"
     inkscape:cx="232.85145"
     inkscape:cy="850"
     inkscape:document-units="mm"
     inkscape:current-layer="layer1"
     showgrid="false"
     inkscape:window-width="1299"
     inkscape:window-height="713"
     inkscape:window-x="67"
     inkscape:window-y="27"
     inkscape:window-maximized="1"
     fit-margin-top="0"
     fit-margin-left="0"
     fit-margin-right="0"
     fit-margin-bottom="0"
     showguides="true"
     units="px"
     inkscape:lockguides="true" />
  <metadata
     id="metadata5">
    <rdf:RDF>
      <cc:Work
         rdf:about="">
        <dc:format>image/svg+xml</dc:format>
        <dc:type
           rdf:resource="http://purl.org/dc/dcmitype/StillImage" />
        <dc:title />
      </cc:Work>
    </rdf:RDF>
  </metadata>
  <g
     inkscape:label="Capa 1"
     inkscape:groupmode="layer"
     id="layer1"
     transform="translate(-24.982666,247.32069)">
    <rect
       style="opacity:1;fill:#f4ff38;fill-opacity:0;stroke:none;stroke-width:2.87938881;stroke-linecap:round;stroke-linejoin:round;stroke-miterlimit:4;stroke-dasharray:none;stroke-dashoffset:0;stroke-opacity:1"
       id="rect893"
       width="244.452"
       height="215.11775"
       x="51.057545"
       y="-219.61613"
       inkscape:export-xdpi="200"
       inkscape:export-ydpi="200" />
    <text
       xml:space="preserve"
       style="font-style:italic;font-variant:normal;font-weight:normal;font-stretch:normal;font-size:47.32464218px;line-height:1.25;font-family:Ubuntu;-inkscape-font-specification:'Ubuntu Italic';text-align:center;letter-spacing:0px;word-spacing:0px;text-anchor:middle;fill:#ffffff;fill-opacity:1;stroke:none;stroke-width:1.47889507"
       x="171.85843"
       y="-21.471867"
       id="text818"><tspan
         sodipodi:role="line"
         id="tspan816"
         x="171.85843"
         y="-21.471867"
         style="font-style:italic;font-variant:normal;font-weight:normal;font-stretch:normal;font-family:Ubuntu;-inkscape-font-specification:'Ubuntu Italic';fill:#ffffff;stroke-width:1.47889507">natura</tspan></text>
    <g
       id="g895">
      <rect
         y="-203.14481"
         x="68.197083"
         height="58.164921"
         width="58.164921"
         id="rect889"
         style="opacity:1;fill:#00ac00;fill-opacity:1;stroke:none;stroke-width:0.99648046;stroke-linecap:round;stroke-linejoin:round;stroke-miterlimit:4;stroke-dasharray:none;stroke-dashoffset:0;stroke-opacity:1" />
      <rect
         style="opacity:1;fill:#ff0a00;fill-opacity:1;stroke:none;stroke-width:0.99648046;stroke-linecap:round;stroke-linejoin:round;stroke-miterlimit:4;stroke-dasharray:none;stroke-dashoffset:0;stroke-opacity:1"
         id="rect850"
         width="58.164921"
         height="58.164921"
         x="144.75755"
         y="-126.58433" />
      <rect
         style="opacity:1;fill:#ff6600;fill-opacity:1;stroke:none;stroke-width:0.99648046;stroke-linecap:round;stroke-linejoin:round;stroke-miterlimit:4;stroke-dasharray:none;stroke-dashoffset:0;stroke-opacity:1"
         id="rect838"
         width="58.164921"
         height="58.164921"
         x="144.58876"
         y="-203.14481" />
      <path
         sodipodi:nodetypes="cccccc"
         inkscape:connector-curvature="0"
         id="path825"
         d="m 157.11751,-186.51033 c 8.63649,3.9754 16.25186,0.90718 23.30025,-6.07191 -0.23483,7.68791 1.73546,14.92766 12.97491,20.28353 -6.83781,2.37361 -13.43245,5.2811 -15.28132,18.60783 -4.88254,-8.77275 -13.09259,-10.03775 -22.41929,-8.78327 6.88779,-7.41317 5.44583,-15.60428 1.42545,-24.03618 z"
         style="fill:none;stroke:#000000;stroke-width:3;stroke-linecap:round;stroke-linejoin:round;stroke-miterlimit:4;stroke-dasharray:none;stroke-opacity:1" />
      <rect
         y="-203.14481"
         x="221.26718"
         height="58.164921"
         width="58.164921"
         id="rect832"
         style="opacity:1;fill:#fff20a;fill-opacity:1;stroke:none;stroke-width:0.99648046;stroke-linecap:round;stroke-linejoin:round;stroke-miterlimit:4;stroke-dasharray:none;stroke-dashoffset:0;stroke-opacity:1" />
      <rect
         y="-126.58433"
         x="221.31804"
         height="58.164921"
         width="58.164921"
         id="rect856"
         style="opacity:1;fill:#ff40cd;fill-opacity:1;stroke:none;stroke-width:0.99648046;stroke-linecap:round;stroke-linejoin:round;stroke-miterlimit:4;stroke-dasharray:none;stroke-dashoffset:0;stroke-opacity:1" />
      <path
         d="m 252.19783,-98.93895 c -6.2e-4,-5.8e-4 0.002,-0.0018 0.002,-0.0019 0.01,-0.0039 0.0161,0.012 0.0165,0.01882 0.002,0.04089 -0.0506,0.05653 -0.0823,0.05204 -0.10586,-0.01496 -0.13716,-0.146073 -0.11318,-0.233606 0.0599,-0.218592 0.3312,-0.273238 0.51949,-0.203899 0.39404,0.145107 0.48108,0.641858 0.32791,0.990885 -0.2844,0.648056 -1.11644,0.777813 -1.70204,0.488732 -0.9973,-0.492316 -1.18138,-1.795499 -0.68985,-2.710103 0.78414,-1.45908 2.72148,-1.71035 4.07477,-0.93466 2.05135,1.17581 2.38397,3.938525 1.22655,5.858056 -1.68382,2.792554 -5.49228,3.222003 -8.12402,1.56889 -3.70173,-2.325212 -4.24479,-7.429836 -1.96505,-10.938716 3.11751,-4.79834 9.79958,-5.47313 14.36993,-2.4184 6.10235,4.0787 6.92835,12.651123 2.93232,18.487175 -5.22718,7.634113 -16.03521,8.632156 -23.36151,3.510211 -5.28365,-3.693893 -8.30101,-9.966679 -8.28691,-16.370196"
         sodipodi:t0="0"
         sodipodi:argument="-33.809067"
         sodipodi:radius="21.047682"
         sodipodi:revolution="3.9023952"
         sodipodi:expansion="3.28"
         sodipodi:cy="-98.93895"
         sodipodi:cx="252.19783"
         id="path910"
         style="fill:none;fill-rule:evenodd;stroke:#000000;stroke-width:3;stroke-linecap:round;stroke-linejoin:round;stroke-miterlimit:4;stroke-dasharray:none"
         sodipodi:type="spiral" />
      <path
         sodipodi:nodetypes="cccccccccccccc"
         inkscape:connector-curvature="0"
         id="path829"
         d="m 237.039,-153.40116 2.07104,-4.14208 c 11.89518,2.63067 10.91658,0.67561 9.01532,-2.58247 2.78208,-0.6026 12.24748,-2.15664 3.06993,-6.52945 2.27194,-1.29476 12.79928,-4.2675 3.58138,-7.79734 5.06608,-2.01326 12.04787,-4.86428 3.87436,-7.74808 2.46256,-0.63909 10.53343,-3.72535 3.14318,-6.40822 0.11676,-4.97265 9.37405,-14.95636 -2.55786,-1.24262 -5.6967,-5.1204 -4.01863,2.47312 -5.09299,5.50656 -5.76923,-5.45183 -5.2828,2.175 -5.14096,6.28573 -6.03622,-5.91872 -5.05373,2.10172 -5.79891,6.89567 -6.34689,-6.66563 -5.13459,2.30408 -4.87325,5.89615 -4.65738,-0.96342 -6.45593,-0.0925 0.7318,7.70008 z"
         style="fill:none;stroke:#000000;stroke-width:3;stroke-linecap:round;stroke-linejoin:round;stroke-miterlimit:4;stroke-dasharray:none;stroke-opacity:1" />
      <rect
         y="-126.58433"
         x="68.197083"
         height="58.164921"
         width="58.164921"
         id="rect844"
         style="opacity:1;fill:#0079dc;fill-opacity:1;stroke:none;stroke-width:0.99648046;stroke-linecap:round;stroke-linejoin:round;stroke-miterlimit:4;stroke-dasharray:none;stroke-dashoffset:0;stroke-opacity:1" />
      <g
         style="stroke-width:2.61016035;stroke-miterlimit:4;stroke-dasharray:none"
         transform="matrix(1.1297634,0.21130773,-0.21130773,1.1297634,-39.687454,-23.638741)"
         id="g872">
        <path
           style="fill:none;stroke:#000000;stroke-width:2.61016035;stroke-linecap:round;stroke-linejoin:miter;stroke-miterlimit:4;stroke-dasharray:none;stroke-opacity:1"
           d="m 184.43755,-83.717435 c -3.4558,-4.748407 -6.9009,-5.573988 -12.3471,-6.342176 -8.77701,-1.238001 -7.65169,-7.179674 -1.57151,-14.573969 2.6458,-3.21765 2.96372,-6.42904 -0.62018,-8.51117"
           id="path866"
           inkscape:connector-curvature="0"
           sodipodi:nodetypes="cssc" />
        <path
           style="fill:none;stroke:#000000;stroke-width:2.61016035;stroke-linecap:round;stroke-linejoin:miter;stroke-miterlimit:4;stroke-dasharray:none;stroke-opacity:1"
           d="m 172.98383,-81.673952 c -2.62351,-1.086959 -5.12409,-2.514278 -0.83554,-8.537643 4.28855,-6.023366 7.95073,-12.466135 -2.30133,-14.631805 -4.73497,-1.00022 -8.72105,-2.19948 -10.90854,-5.53802"
           id="path868"
           inkscape:connector-curvature="0"
           sodipodi:nodetypes="czsc" />
      </g>
      <path
         style="fill:#000000;fill-opacity:1;stroke:#000000;stroke-width:3;stroke-linecap:butt;stroke-linejoin:round;stroke-miterlimit:4;stroke-dasharray:none;stroke-opacity:1"
         d="m 98.790121,-158.49662 c -0.32794,-3.32491 -1.781525,-7.95998 -2.448553,-9.93575 -0.667028,-1.97577 -0.580536,-9.09713 -0.02623,-10.36198 -5.680621,-1.59015 -14.238001,-7.49643 -16.249316,-10.53411 2.765264,-0.10095 15.229883,1.69905 16.249316,10.53411 2.254237,-2.13352 2.946445,-8.82176 19.186992,-10.16474 -9.0677,5.35122 -8.69395,10.36983 -19.186992,10.16474 0,0 -0.735429,8.19696 0.02623,10.36198 0.761659,2.16502 2.155983,6.52164 2.448506,9.93575 z"
         id="path891"
         inkscape:connector-curvature="0"
         sodipodi:nodetypes="czccccczcc" />
      <g
         transform="translate(1.0583333,-1.0583333)"
         id="g843">
        <path
           sodipodi:nodetypes="czzc"
           inkscape:connector-curvature="0"
           id="path833"
           d="m 106.56896,-106.87645 c -8.708587,-7.31201 -20.606194,-2.51805 -23.665828,7.022489 -3.059632,9.54053 5.24858,20.89465 16.673011,18.81536 11.424447,-2.07929 13.366237,-12.926078 11.939607,-17.824881"
           style="fill:none;stroke:#000000;stroke-width:3;stroke-linecap:round;stroke-linejoin:miter;stroke-miterlimit:4;stroke-dasharray:none;stroke-opacity:1" />
        <path
           style="fill:none;stroke:#000000;stroke-width:3;stroke-linecap:round;stroke-linejoin:miter;stroke-miterlimit:4;stroke-dasharray:none;stroke-opacity:1"
           d="m 109.49467,-103.65958 c 0.27161,0.37722 0.38291,0.52698 0.58154,0.92524"
           id="path835"
           inkscape:connector-curvature="0"
           sodipodi:nodetypes="cc" />
      </g>
    </g>
  </g>
</svg>
