<?xml version="1.0" encoding="UTF-8" standalone="no"?>
<!-- Created with Inkscape (http://www.inkscape.org/) -->

<svg
   xmlns:dc="http://purl.org/dc/elements/1.1/"
   xmlns:cc="http://creativecommons.org/ns#"
   xmlns:rdf="http://www.w3.org/1999/02/22-rdf-syntax-ns#"
   xmlns:svg="http://www.w3.org/2000/svg"
   xmlns="http://www.w3.org/2000/svg"
   xmlns:sodipodi="http://sodipodi.sourceforge.net/DTD/sodipodi-0.dtd"
   xmlns:inkscape="http://www.inkscape.org/namespaces/inkscape"
   width="1134"
   height="1700"
   viewBox="0 0 300.03749 449.79166"
   version="1.1"
   id="svg8"
   inkscape:version="0.92.3 (2405546, 2018-03-11)"
   sodipodi:docname="16-limoi-edaria.svg"
   inkscape:export-filename="/home/txopi/Dokumentuak/irudiak/LaPiKo/kamisetak/Ez-dago-hodeirik/Ez dago hodeirik2.png"
   inkscape:export-xdpi="96"
   inkscape:export-ydpi="96">
  <defs
     id="defs2" />
  <sodipodi:namedview
     id="base"
     pagecolor="#ffffff"
     bordercolor="#666666"
     borderopacity="1.0"
     inkscape:pageopacity="0"
     inkscape:pageshadow="2"
     inkscape:zoom="0.32470588"
     inkscape:cx="-236.80435"
     inkscape:cy="880.7971"
     inkscape:document-units="mm"
     inkscape:current-layer="layer1"
     showgrid="false"
     inkscape:window-width="1299"
     inkscape:window-height="713"
     inkscape:window-x="67"
     inkscape:window-y="27"
     inkscape:window-maximized="1"
     fit-margin-top="0"
     fit-margin-left="0"
     fit-margin-right="0"
     fit-margin-bottom="0"
     showguides="true"
     units="px"
     inkscape:measure-start="0,0"
     inkscape:measure-end="0,0" />
  <metadata
     id="metadata5">
    <rdf:RDF>
      <cc:Work
         rdf:about="">
        <dc:format>image/svg+xml</dc:format>
        <dc:type
           rdf:resource="http://purl.org/dc/dcmitype/StillImage" />
        <dc:title></dc:title>
      </cc:Work>
    </rdf:RDF>
  </metadata>
  <g
     inkscape:label="Capa 1"
     inkscape:groupmode="layer"
     id="layer1"
     transform="translate(-24.982666,247.32069)">
    <g
       style="stroke-width:1.15880907;stroke-miterlimit:4;stroke-dasharray:none"
       transform="matrix(-0.84148548,1.1459616,-1.1459616,-0.84148548,-45.802951,-356.82332)"
       id="g899">
      <path
         sodipodi:nodetypes="czzc"
         inkscape:connector-curvature="0"
         id="path836"
         d="m 101.52591,-109.65214 c -10.825009,-3.48197 -20.031319,5.44994 -19.261597,15.439474 0.76972,9.989524 12.750432,17.365497 22.543747,11.125941 9.79333,-6.239562 7.49525,-17.016495 4.32431,-21.013825"
         style="fill:none;stroke:#000000;stroke-width:1.40673351;stroke-linecap:round;stroke-linejoin:miter;stroke-miterlimit:4;stroke-dasharray:none;stroke-opacity:1" />
      <path
         style="fill:none;stroke:#000000;stroke-width:1.40673351;stroke-linecap:round;stroke-linejoin:miter;stroke-miterlimit:4;stroke-dasharray:none;stroke-opacity:1"
         d="m 106.56896,-106.87645 c -8.708587,-7.31201 -20.606194,-2.51805 -23.665828,7.022489 -3.059632,9.54053 5.24858,20.89465 16.673011,18.81536 11.424447,-2.07929 13.366237,-12.926078 11.939607,-17.824881"
         id="path833"
         inkscape:connector-curvature="0"
         sodipodi:nodetypes="czzc" />
      <path
         sodipodi:nodetypes="cc"
         inkscape:connector-curvature="0"
         id="path835"
         d="m 109.49467,-103.65958 c 0.27161,0.37722 0.38291,0.52698 0.58154,0.92524"
         style="fill:none;stroke:#000000;stroke-width:1.15880907;stroke-linecap:round;stroke-linejoin:miter;stroke-miterlimit:4;stroke-dasharray:none;stroke-opacity:1" />
      <path
         sodipodi:type="star"
         style="opacity:1;fill:none;fill-opacity:1;stroke:#000000;stroke-width:7.55905533;stroke-linecap:round;stroke-linejoin:round;stroke-miterlimit:4;stroke-dasharray:none;stroke-dashoffset:0;stroke-opacity:0.30805688"
         id="path838"
         sodipodi:sides="8"
         sodipodi:cx="433.6391"
         sodipodi:cy="289.97348"
         sodipodi:r1="78.123589"
         sodipodi:r2="41.886665"
         sodipodi:arg1="-1.9756881"
         sodipodi:arg2="-1.582989"
         inkscape:flatsided="false"
         inkscape:rounded="0"
         inkscape:randomized="0"
         d="m 402.86471,218.16657 30.26369,29.92336 29.52507,-30.65238 0.24065,42.55867 42.55189,-0.79713 -29.92336,30.26369 30.65238,29.52507 -42.55867,0.24066 0.79713,42.55188 -30.26369,-29.92336 -29.52507,30.65238 -0.24066,-42.55867 -42.55188,0.79713 29.92336,-30.26369 -30.65238,-29.52507 42.55867,-0.24066 z"
         transform="matrix(-0.11014703,-0.15000172,0.15000172,-0.11014703,100.97776,1.5745371)"
         inkscape:transform-center-x="2.8660624e-06"
         inkscape:transform-center-y="7.641009e-06" />
      <path
         inkscape:transform-center-y="2.9440226e-06"
         transform="matrix(-0.00246854,-0.00336174,0.00336174,-0.00246854,96.805858,-93.238198)"
         d="m 402.86471,218.16657 30.26369,29.92336 29.52507,-30.65238 0.24065,42.55867 42.55189,-0.79713 -29.92336,30.26369 30.65238,29.52507 -42.55867,0.24066 0.79713,42.55188 -30.26369,-29.92336 -29.52507,30.65238 -0.24066,-42.55867 -42.55188,0.79713 29.92336,-30.26369 -30.65238,-29.52507 42.55867,-0.24066 z"
         inkscape:randomized="0"
         inkscape:rounded="0"
         inkscape:flatsided="false"
         sodipodi:arg2="-1.582989"
         sodipodi:arg1="-1.9756881"
         sodipodi:r2="41.886665"
         sodipodi:r1="78.123589"
         sodipodi:cy="289.97348"
         sodipodi:cx="433.6391"
         sodipodi:sides="8"
         id="path840"
         style="opacity:1;fill:none;fill-opacity:1;stroke:#000000;stroke-width:7.55905533;stroke-linecap:round;stroke-linejoin:round;stroke-miterlimit:4;stroke-dasharray:none;stroke-dashoffset:0;stroke-opacity:0.30805688"
         sodipodi:type="star" />
      <path
         style="fill:none;stroke:#ffffff;stroke-width:0.70336676;stroke-linecap:butt;stroke-linejoin:miter;stroke-miterlimit:4;stroke-dasharray:none;stroke-opacity:1"
         d="m 104.09168,-107.93732 -7.546886,12.806241 -7.216019,12.244815 7.546877,-12.806242 -14.241786,3.918125 13.97125,-3.776953 -12.420418,-7.241916 12.80624,7.546885 -3.918122,-14.241785 3.555888,13.760887 14.887056,-3.136221 -15.08625,3.286263 12.80625,7.54688 -12.444017,-7.065981 3.555897,13.760891"
         id="path842"
         inkscape:connector-curvature="0" />
      <path
         style="fill:none;stroke:#000000;stroke-width:1.23321605;stroke-linecap:round;stroke-linejoin:miter;stroke-miterlimit:4;stroke-dasharray:none;stroke-opacity:0.44075832"
         d="m 100.96923,-107.92317 c -9.489756,-3.05247 -17.560491,4.77771 -16.885715,13.53506 0.674776,8.757339 11.177702,15.223502 19.763025,9.753581 8.58535,-5.469925 6.57073,-14.91755 3.79092,-18.421811"
         id="path844"
         inkscape:connector-curvature="0"
         sodipodi:nodetypes="czzc" />
      <path
         style="fill:#ffff9b;fill-opacity:1;stroke:none;stroke-width:0.18609913px;stroke-linecap:butt;stroke-linejoin:miter;stroke-opacity:1"
         d="m 94.487604,-95.456377 c 0.790352,-0.164972 0.55951,-0.412544 0.157786,-0.673938 l -8.087424,-4.740455 c -0.317983,-0.0821 -0.624834,-0.11317 -0.816647,0.3821 -0.581895,2.099474 -1.062377,4.27428 -0.985929,6.862808 0.11224,0.919505 0.505067,0.667908 0.847613,0.626169 z"
         id="path846"
         inkscape:connector-curvature="0"
         sodipodi:nodetypes="ccccccc"
         inkscape:transform-center-x="-8.3698615"
         inkscape:transform-center-y="-8.645791" />
      <path
         inkscape:transform-center-y="-0.43688154"
         inkscape:transform-center-x="-9.640559"
         sodipodi:nodetypes="ccccccc"
         inkscape:connector-curvature="0"
         id="path848"
         d="m 95.091061,-97.047818 c 0.67697,0.439983 0.687685,0.101656 0.586912,-0.36691 l -2.39654,-9.062832 c -0.167726,-0.28235 -0.363519,-0.52065 -0.84865,-0.30448 -1.892468,1.07934 -3.766083,2.28358 -5.536172,4.17385 -0.568416,0.73143 -0.112413,0.82979 0.160017,1.0416 z"
         style="fill:#ffff9b;fill-opacity:1;stroke:none;stroke-width:0.18609913px;stroke-linecap:butt;stroke-linejoin:miter;stroke-opacity:1" />
      <path
         style="fill:#ffff9b;fill-opacity:1;stroke:none;stroke-width:0.18609913px;stroke-linecap:butt;stroke-linejoin:miter;stroke-opacity:1"
         d="m 96.668085,-97.752333 c 0.160507,0.791272 0.409378,0.561831 0.673036,0.161589 l 4.786039,-8.060536 c 0.0839,-0.31751 0.11669,-0.62418 -0.37748,-0.81879 -2.096163,-0.59373 -4.268217,-1.08649 -6.857138,-1.02465 -0.920123,0.10704 -0.670746,0.50128 -0.630945,0.84406 z"
         id="path850"
         inkscape:connector-curvature="0"
         sodipodi:nodetypes="ccccccc"
         inkscape:transform-center-x="-8.6202613"
         inkscape:transform-center-y="8.3974238" />
      <path
         inkscape:transform-center-y="9.6548292"
         inkscape:transform-center-x="0.27059525"
         sodipodi:nodetypes="ccccccc"
         inkscape:connector-curvature="0"
         id="path852"
         d="m 98.318669,-97.078143 c -0.470008,0.65648 -0.132507,0.682413 0.34012,0.602833 l 9.161521,-1.986186 c 0.28962,-0.154839 0.53648,-0.339715 0.34237,-0.834081 -0.99307,-1.939133 -2.11175,-3.865053 -3.92044,-5.718433 -0.7051,-0.60076 -0.82388,-0.14965 -1.04774,0.11297 z"
         style="fill:#ffff9b;fill-opacity:1;stroke:none;stroke-width:0.18609913px;stroke-linecap:butt;stroke-linejoin:miter;stroke-opacity:1" />
      <path
         style="fill:#ffff9b;fill-opacity:1;stroke:none;stroke-width:0.18609913px;stroke-linecap:butt;stroke-linejoin:miter;stroke-opacity:1"
         d="m 98.95203,-95.520601 c -0.794727,0.142417 -0.571024,0.396457 -0.176899,0.669175 l 7.949269,4.968646 c 0.31552,0.09112 0.62136,0.130898 0.82719,-0.358704 0.64139,-2.082078 1.18357,-4.242322 1.18079,-6.831988 -0.086,-0.922322 -0.48585,-0.682 -0.82945,-0.650029 z"
         id="path854"
         inkscape:connector-curvature="0"
         sodipodi:nodetypes="ccccccc"
         inkscape:transform-center-x="8.50608"
         inkscape:transform-center-y="8.5143356" />
      <path
         inkscape:transform-center-y="0.16278792"
         inkscape:transform-center-x="9.6449598"
         sodipodi:nodetypes="ccccccc"
         inkscape:connector-curvature="0"
         id="path856"
         d="m 98.320751,-93.9645 c -0.669188,-0.451731 -0.685807,-0.113643 -0.593226,0.35661 l 2.238007,9.103277 c 0.162768,0.285239 0.354378,0.526913 0.843208,0.319246 1.91102,-1.046152 3.80536,-2.217501 5.60817,-4.076604 0.58112,-0.721374 0.12688,-0.827694 -0.14181,-1.044229 z"
         style="fill:#ffff9b;fill-opacity:1;stroke:none;stroke-width:0.18609913px;stroke-linecap:butt;stroke-linejoin:miter;stroke-opacity:1" />
      <path
         style="fill:#ffff9b;fill-opacity:1;stroke:none;stroke-width:0.18609913px;stroke-linecap:butt;stroke-linejoin:miter;stroke-opacity:1"
         d="m 96.782201,-93.288465 c -0.164605,-0.79043 -0.412285,-0.559703 -0.673864,-0.1581 l -4.7442,8.085227 c -0.08225,0.317945 -0.113455,0.624779 0.381719,0.816828 2.099216,0.582861 4.273783,1.064358 6.862359,0.989097 0.919557,-0.111778 0.668136,-0.504748 0.626561,-0.847317 z"
         id="path858"
         inkscape:connector-curvature="0"
         sodipodi:nodetypes="ccccccc"
         inkscape:transform-center-x="8.6437167"
         inkscape:transform-center-y="-8.3721309" />
      <path
         inkscape:transform-center-y="-9.6427834"
         inkscape:transform-center-x="0.28651453"
         sodipodi:nodetypes="ccccccc"
         inkscape:connector-curvature="0"
         id="path860"
         d="m 95.176268,-93.906656 c 0.446447,-0.672725 0.108238,-0.686681 -0.361271,-0.590399 l -9.085367,2.309637 c -0.283946,0.165013 -0.524105,0.358518 -0.312595,0.845697 1.061172,1.902721 2.247405,3.787776 4.120649,5.575888 0.725928,0.57542 0.828668,0.120357 1.04308,-0.150031 z"
         style="fill:#ffff9b;fill-opacity:1;stroke:none;stroke-width:0.18609913px;stroke-linecap:butt;stroke-linejoin:miter;stroke-opacity:1" />
    </g>
    <g
       id="g1089">
      <rect
         ry="1.0584687"
         inkscape:transform-center-y="-76.790452"
         inkscape:transform-center-x="-33.634669"
         transform="rotate(22.388885)"
         y="-242.4274"
         x="66.271606"
         height="113.74809"
         width="3.2841711"
         id="rect945"
         style="opacity:1;fill:#88b9ca;fill-opacity:1;stroke:#000000;stroke-width:1.40458357;stroke-linecap:round;stroke-linejoin:round;stroke-miterlimit:4;stroke-dasharray:none;stroke-dashoffset:0;stroke-opacity:1" />
      <ellipse
         ry="14.848708"
         rx="14.888094"
         cy="-171.04819"
         cx="105.50488"
         id="path927"
         style="opacity:1;fill:#ffffff;fill-opacity:1;stroke:none;stroke-width:1.06192195;stroke-linecap:round;stroke-linejoin:round;stroke-miterlimit:4;stroke-dasharray:none;stroke-dashoffset:0;stroke-opacity:1" />
      <path
         sodipodi:nodetypes="czzc"
         inkscape:connector-curvature="0"
         id="path882"
         d="m 109.0325,-157.05734 c 11.03121,-2.6875 14.20414,-15.09576 8.33406,-23.19631 -5.87006,-8.10054 -19.917745,-8.12402 -24.995814,2.29914 -5.078069,10.42319 2.503877,18.39605 7.289521,20.14294"
         style="fill:none;fill-opacity:1;stroke:#000000;stroke-width:1.40458357;stroke-linecap:round;stroke-linejoin:miter;stroke-miterlimit:4;stroke-dasharray:none;stroke-opacity:1" />
      <path
         style="fill:#fff87c;fill-opacity:1;stroke:#000000;stroke-width:1.40458357;stroke-linecap:butt;stroke-linejoin:miter;stroke-miterlimit:4;stroke-dasharray:none;stroke-opacity:1"
         d="m 108.49422,-99.42 c 0.0965,6.793914 1.29033,8.665556 8.61179,8.723135 h 24.95403 c 6.8688,0.09858 8.72353,-1.653278 8.6259,-8.723135 v -49.17808 c -14.71634,-4.70959 -25.43503,3.02828 -42.16126,-0.52609 z"
         id="path824"
         inkscape:connector-curvature="0"
         sodipodi:nodetypes="ccccccc" />
      <path
         style="fill:none;fill-opacity:1;stroke:#000000;stroke-width:1.40458357;stroke-linecap:round;stroke-linejoin:miter;stroke-miterlimit:4;stroke-dasharray:none;stroke-opacity:1"
         d="m 114.24665,-159.47563 c 9.19953,-6.65422 7.45178,-19.34194 -1.04268,-24.62597 -8.49445,-5.28402 -21.510842,-7e-4 -22.276781,11.56812 -0.765966,11.56906 9.265401,16.08839 14.356371,15.89871"
         id="path862"
         inkscape:connector-curvature="0"
         sodipodi:nodetypes="czzc" />
      <path
         inkscape:transform-center-y="-8.645791"
         inkscape:transform-center-x="-8.3698615"
         sodipodi:nodetypes="ccccccc"
         inkscape:connector-curvature="0"
         id="path864"
         d="m 106.98134,-173.15768 c -0.33431,0.73356 10e-4,0.6941 0.44913,0.52527 l 8.59453,-3.70731 c 0.254,-0.20739 0.46034,-0.43598 0.17509,-0.88303 -1.34576,-1.70905 -2.81209,-3.38097 -4.94053,-4.84919 -0.80634,-0.45307 -0.836,0.0121 -1.00485,0.31212 z"
         style="fill:#fff87c;fill-opacity:1;stroke:none;stroke-width:0.18581471px;stroke-linecap:butt;stroke-linejoin:miter;stroke-miterlimit:4;stroke-dasharray:none;stroke-opacity:1" />
      <path
         style="fill:#fff87c;fill-opacity:1;stroke:none;stroke-width:0.18581471px;stroke-linecap:butt;stroke-linejoin:miter;stroke-miterlimit:4;stroke-dasharray:none;stroke-opacity:1"
         d="m 107.9055,-171.73153 c -0.75417,0.28481 -0.48821,0.49338 -0.0516,0.68917 l 8.71004,3.42712 c 0.32636,0.0319 0.63385,0.0151 0.74657,-0.50305 0.24974,-2.16091 0.38782,-4.38047 -0.0874,-6.92212 -0.25273,-0.88972 -0.60136,-0.58086 -0.93282,-0.48678 z"
         id="path866"
         inkscape:connector-curvature="0"
         sodipodi:nodetypes="ccccccc"
         inkscape:transform-center-x="-9.640559"
         inkscape:transform-center-y="-0.43688154" />
      <path
         inkscape:transform-center-y="8.3974238"
         inkscape:transform-center-x="-8.6202613"
         sodipodi:nodetypes="ccccccc"
         inkscape:connector-curvature="0"
         id="path868"
         d="m 107.54052,-170.04599 c -0.73167,-0.33845 -0.69408,-0.003 -0.52778,0.44616 l 3.65872,8.61533 c 0.20594,0.25515 0.43336,0.46278 0.88203,0.18008 1.71659,-1.33612 3.39678,-2.79299 4.87699,-4.9131 0.45761,-0.80376 -0.007,-0.83604 -0.30644,-1.00658 z"
         style="fill:#fff87c;fill-opacity:1;stroke:none;stroke-width:0.18581471px;stroke-linecap:butt;stroke-linejoin:miter;stroke-miterlimit:4;stroke-dasharray:none;stroke-opacity:1" />
      <path
         style="fill:#fff87c;fill-opacity:1;stroke:none;stroke-width:0.18581471px;stroke-linecap:butt;stroke-linejoin:miter;stroke-miterlimit:4;stroke-dasharray:none;stroke-opacity:1"
         d="m 106.02249,-169.11603 c -0.25057,-0.76622 -0.4709,-0.50992 -0.68615,-0.0825 l -3.81569,8.54695 c -0.0466,0.32459 -0.0437,0.63253 0.46894,0.76846 2.14747,0.34675 4.35856,0.58458 6.91904,0.22424 0.90018,-0.21244 0.60733,-0.57462 0.52826,-0.90997 z"
         id="path870"
         inkscape:connector-curvature="0"
         sodipodi:nodetypes="ccccccc"
         inkscape:transform-center-x="0.27059525"
         inkscape:transform-center-y="9.6548292" />
      <path
         inkscape:transform-center-y="8.5143356"
         inkscape:transform-center-x="8.50608"
         sodipodi:nodetypes="ccccccc"
         inkscape:connector-curvature="0"
         id="path872"
         d="m 104.39468,-169.52675 c 0.35506,-0.72377 0.0184,-0.69386 -0.434,-0.53783 l -8.696537,3.46124 c -0.259792,0.20009 -0.47255,0.42272 -0.200152,0.87771 1.296614,1.74663 2.714772,3.45961 4.800568,4.98779 0.793101,0.47584 0.836001,0.0121 1.013321,-0.2834 z"
         style="fill:#fff87c;fill-opacity:1;stroke:none;stroke-width:0.18581471px;stroke-linecap:butt;stroke-linejoin:miter;stroke-miterlimit:4;stroke-dasharray:none;stroke-opacity:1" />
      <path
         style="fill:#fff87c;fill-opacity:1;stroke:none;stroke-width:0.18581471px;stroke-linecap:butt;stroke-linejoin:miter;stroke-miterlimit:4;stroke-dasharray:none;stroke-opacity:1"
         d="m 103.5154,-170.95442 c 0.75903,-0.2716 0.49676,-0.48477 0.0635,-0.68816 l -8.648898,-3.57861 c -0.325754,-0.0375 -0.633491,-0.0261 -0.755249,0.48995 -0.287401,2.15623 -0.46419,4.37301 -0.03336,6.9226 0.237139,0.89399 0.591146,0.59124 0.924201,0.50297 z"
         id="path874"
         inkscape:connector-curvature="0"
         sodipodi:nodetypes="ccccccc"
         inkscape:transform-center-x="9.6449598"
         inkscape:transform-center-y="0.16278792" />
      <path
         inkscape:transform-center-y="-8.3721309"
         inkscape:transform-center-x="8.6437167"
         sodipodi:nodetypes="ccccccc"
         inkscape:connector-curvature="0"
         id="path876"
         d="m 103.88057,-172.59216 c 0.73341,0.33465 0.69409,-7.1e-4 0.52547,-0.44889 l -3.70332,-8.59625 c -0.20724,-0.25412 -0.43577,-0.46052 -0.882958,-0.1755 -1.709658,1.34499 -3.382276,2.81054 -4.851474,4.93829 -0.45346,0.80612 0.01072,0.836 0.311649,1.005 z"
         style="fill:#fff87c;fill-opacity:1;stroke:none;stroke-width:0.18581471px;stroke-linecap:butt;stroke-linejoin:miter;stroke-miterlimit:4;stroke-dasharray:none;stroke-opacity:1" />
      <path
         style="fill:#fff87c;fill-opacity:1;stroke:none;stroke-width:0.18581471px;stroke-linecap:butt;stroke-linejoin:miter;stroke-miterlimit:4;stroke-dasharray:none;stroke-opacity:1"
         d="m 105.32714,-173.51928 c 0.27757,0.75686 0.48868,0.49291 0.68865,0.0581 l 3.51037,-8.67683 c 0.035,-0.32603 0.0212,-0.63366 -0.49588,-0.75136 -2.15843,-0.27042 -4.37655,-0.42974 -6.92264,0.0212 -0.89211,0.24418 -0.58659,0.59579 -0.49569,0.92813 z"
         id="path878"
         inkscape:connector-curvature="0"
         sodipodi:nodetypes="ccccccc"
         inkscape:transform-center-x="0.28651453"
         inkscape:transform-center-y="-9.6427834" />
      <path
         sodipodi:nodetypes="ccccccccc"
         inkscape:connector-curvature="0"
         id="path822"
         d="m 105.52118,-96.620248 c 0.0121,5.011701 3.15742,8.750423 8.61179,8.723136 h 30.90011 c 5.25633,0.01371 8.63866,-3.435492 8.62589,-8.723136 v -71.475832 c -0.019,-3.29372 -0.97165,-3.93115 -4.49875,-3.96848 h -39.88677 c -2.53791,0.009 -3.72463,0.84109 -3.72179,3.44238 z"
         style="fill:none;stroke:#000000;stroke-width:1.40458357;stroke-linecap:butt;stroke-linejoin:miter;stroke-miterlimit:4;stroke-dasharray:none;stroke-opacity:1" />
      <circle
         r="1.8758137"
         cy="-139.18889"
         cx="127.92097"
         id="path929"
         style="opacity:1;fill:none;fill-opacity:1;stroke:#000000;stroke-width:1.40458357;stroke-linecap:round;stroke-linejoin:round;stroke-miterlimit:4;stroke-dasharray:none;stroke-dashoffset:0;stroke-opacity:1" />
      <circle
         style="opacity:1;fill:#040000;fill-opacity:1;stroke:#000000;stroke-width:1.40458357;stroke-linecap:round;stroke-linejoin:round;stroke-miterlimit:4;stroke-dasharray:none;stroke-dashoffset:0;stroke-opacity:1"
         id="circle931"
         cx="140.04761"
         cy="-126.97456"
         r="0.62948996" />
      <circle
         r="0.62948996"
         cy="-94.174576"
         cx="119.48641"
         id="circle935"
         style="opacity:1;fill:#040000;fill-opacity:1;stroke:#000000;stroke-width:1.40458357;stroke-linecap:round;stroke-linejoin:round;stroke-miterlimit:4;stroke-dasharray:none;stroke-dashoffset:0;stroke-opacity:1" />
      <circle
         style="opacity:1;fill:none;fill-opacity:1;stroke:#000000;stroke-width:1.40458357;stroke-linecap:round;stroke-linejoin:round;stroke-miterlimit:4;stroke-dasharray:none;stroke-dashoffset:0;stroke-opacity:1"
         id="circle939"
         cx="114.96229"
         cy="-120.3988"
         r="1.8758137" />
      <circle
         r="1.8758137"
         cy="-108.60639"
         cx="133.75238"
         id="circle941"
         style="opacity:1;fill:none;fill-opacity:1;stroke:#000000;stroke-width:1.40458357;stroke-linecap:round;stroke-linejoin:round;stroke-miterlimit:4;stroke-dasharray:none;stroke-dashoffset:0;stroke-opacity:1" />
    </g>
    <rect
       style="opacity:1;fill:#f63f00;fill-opacity:0;stroke:none;stroke-width:1.41971159;stroke-linecap:round;stroke-linejoin:round;stroke-miterlimit:4;stroke-dasharray:none;stroke-dashoffset:0;stroke-opacity:1"
       id="rect947"
       width="202.89513"
       height="140.96733"
       x="75.502747"
       y="-211.46774"
       inkscape:export-xdpi="199.99202"
       inkscape:export-ydpi="199.99202" />
    <text
       id="text52"
       y="-137.12891"
       x="216.56419"
       style="font-style:normal;font-variant:normal;font-weight:normal;font-stretch:normal;font-size:21.16666603px;line-height:1;font-family:Journal;-inkscape-font-specification:Journal;text-align:center;letter-spacing:0px;word-spacing:0px;text-anchor:middle;fill:#000000;fill-opacity:1;stroke:none;stroke-width:6.50120735;"
       xml:space="preserve"
       inkscape:export-xdpi="100.00459"
       inkscape:export-ydpi="100.00459"><tspan
         style="font-style:normal;font-variant:normal;font-weight:normal;font-stretch:normal;font-family:Journal;-inkscape-font-specification:Journal;text-align:center;text-anchor:middle;fill:#000000;fill-opacity:1;stroke-width:6.50120735;"
         y="-137.12891"
         x="171.23801"
         sodipodi:role="line"
         id="tspan70">Bizitzak limoi bat</tspan><tspan
         style="font-style:normal;font-variant:normal;font-weight:normal;font-stretch:normal;font-family:Journal;-inkscape-font-specification:Journal;text-align:center;text-anchor:middle;fill:#000000;fill-opacity:1;stroke-width:6.50120735;"
         y="-115.96224"
         x="171.23801"
         sodipodi:role="line"
         id="tspan1030">ematen badizu,</tspan><tspan
         style="font-style:normal;font-variant:normal;font-weight:normal;font-stretch:normal;font-family:Journal;-inkscape-font-specification:Journal;text-align:center;text-anchor:middle;fill:#000000;fill-opacity:1;stroke-width:6.50120735;"
         y="-94.79557"
         x="171.23801"
         sodipodi:role="line"
         id="tspan63">limoi-edaria egin.</tspan></text>
  </g>
</svg>
