<?xml version="1.0" encoding="UTF-8" standalone="no"?>
<!-- Created with Inkscape (http://www.inkscape.org/) -->

<svg
   xmlns:dc="http://purl.org/dc/elements/1.1/"
   xmlns:cc="http://creativecommons.org/ns#"
   xmlns:rdf="http://www.w3.org/1999/02/22-rdf-syntax-ns#"
   xmlns:svg="http://www.w3.org/2000/svg"
   xmlns="http://www.w3.org/2000/svg"
   xmlns:sodipodi="http://sodipodi.sourceforge.net/DTD/sodipodi-0.dtd"
   xmlns:inkscape="http://www.inkscape.org/namespaces/inkscape"
   width="1134"
   height="1700"
   viewBox="0 0 300.03749 449.79166"
   version="1.1"
   id="svg8"
   inkscape:version="0.92.3 (2405546, 2018-03-11)"
   sodipodi:docname="14-lauburua.svg"
   inkscape:export-filename="/home/txopi/Dokumentuak/irudiak/LaPiKo/kamisetak/Ez-dago-hodeirik/Ez dago hodeirik2.png"
   inkscape:export-xdpi="96"
   inkscape:export-ydpi="96">
  <defs
     id="defs2">
    <filter
       inkscape:collect="always"
       style="color-interpolation-filters:sRGB"
       id="filter893"
       x="-0.011999999"
       width="1.024"
       y="-0.012000001"
       height="1.024">
      <feGaussianBlur
         inkscape:collect="always"
         stdDeviation="0.27860573"
         id="feGaussianBlur895" />
    </filter>
  </defs>
  <sodipodi:namedview
     id="base"
     pagecolor="#b12f1a"
     bordercolor="#666666"
     borderopacity="1.0"
     inkscape:pageopacity="0"
     inkscape:pageshadow="2"
     inkscape:zoom="0.32470588"
     inkscape:cx="567"
     inkscape:cy="850"
     inkscape:document-units="mm"
     inkscape:current-layer="layer1"
     showgrid="false"
     inkscape:window-width="1299"
     inkscape:window-height="713"
     inkscape:window-x="67"
     inkscape:window-y="27"
     inkscape:window-maximized="1"
     fit-margin-top="0"
     fit-margin-left="0"
     fit-margin-right="0"
     fit-margin-bottom="0"
     showguides="true"
     units="px" />
  <metadata
     id="metadata5">
    <rdf:RDF>
      <cc:Work
         rdf:about="">
        <dc:format>image/svg+xml</dc:format>
        <dc:type
           rdf:resource="http://purl.org/dc/dcmitype/StillImage" />
        <dc:title></dc:title>
      </cc:Work>
    </rdf:RDF>
  </metadata>
  <g
     inkscape:label="Capa 1"
     inkscape:groupmode="layer"
     id="layer1"
     transform="translate(-24.982666,247.32069)">
    <rect
       style="opacity:1;fill:#ffff00;fill-opacity:0;stroke:none;stroke-width:2.03569818;stroke-linecap:round;stroke-linejoin:round;stroke-miterlimit:4;stroke-dasharray:none;stroke-dashoffset:0;stroke-opacity:1"
       id="rect516"
       width="224.95001"
       height="59.071468"
       x="61.545952"
       y="-161.72995"
       inkscape:export-xdpi="199.91029"
       inkscape:export-ydpi="199.91029" />
    <path
       inkscape:connector-curvature="0"
       id="path891"
       d="m 240.76087,-158.11556 a 27.860574,27.860574 0 0 0 -27.86083,27.86083 27.860574,27.860574 0 0 0 27.86083,27.86031 27.860574,27.860574 0 0 0 27.86032,-27.86031 27.860574,27.860574 0 0 0 -27.86032,-27.86083 z m 0.71004,7.62847 c 6.43899,5.9e-4 6.70477,9.83093 0.0186,9.84694 -5.26217,0.0126 -6.89336,6.94786 -1.87069,9.47178 0.56123,0.28202 1.10501,-0.17965 1.22473,-0.72761 2.82987,-12.95247 21.18223,-10.62467 21.16254,1.94665 -0.0105,6.73433 -9.80567,6.60682 -9.8578,0.078 -0.036,-4.51307 -6.0158,-7.39738 -9.35602,-2.18126 -0.37701,0.58873 -0.0643,1.27353 0.5855,1.43918 13.53404,3.45032 10.25388,21.2416 -1.89446,21.2416 h -0.0522 c -6.45064,0.0269 -6.43532,-9.83509 0.0408,-9.8578 5.16061,-0.0181 7.06758,-6.8698 1.91771,-9.4728 -0.52897,-0.26737 -1.15838,0.0788 -1.29759,0.65784 -3.22163,13.39909 -21.18713,10.46696 -21.17494,-1.88464 0.006,-6.45694 9.9648,-6.56848 9.89914,0 -0.0475,4.75456 6.57887,7.38802 9.48211,1.90479 0.21063,-0.3978 9.3e-4,-1.12544 -0.78548,-1.29087 -12.68997,-2.66911 -11.0389,-21.17285 1.95802,-21.17184 z"
       style="opacity:1;fill:#8f2c19;fill-opacity:1;stroke:none;stroke-width:0.991;stroke-linecap:round;stroke-linejoin:round;stroke-miterlimit:4;stroke-dasharray:none;stroke-dashoffset:0;stroke-opacity:0.1658768;filter:url(#filter893)" />
    <path
       style="opacity:1;fill:#51e651;fill-opacity:1;stroke:none;stroke-width:0.991;stroke-linecap:round;stroke-linejoin:round;stroke-miterlimit:4;stroke-dasharray:none;stroke-dashoffset:0;stroke-opacity:0.1658768"
       d="m 239.17336,-159.70307 a 27.860574,27.860574 0 0 0 -27.86083,27.86083 27.860574,27.860574 0 0 0 27.86083,27.86031 27.860574,27.860574 0 0 0 27.86032,-27.86031 27.860574,27.860574 0 0 0 -27.86032,-27.86083 z m 0.71004,7.62847 c 6.43899,5.9e-4 6.70477,9.83093 0.0186,9.84694 -5.26217,0.0126 -6.89336,6.94786 -1.87069,9.47178 0.56123,0.28202 1.10501,-0.17965 1.22473,-0.72761 2.82987,-12.95247 21.18223,-10.62467 21.16254,1.94665 -0.0105,6.73433 -9.80567,6.60682 -9.8578,0.078 -0.036,-4.51307 -6.0158,-7.39738 -9.35602,-2.18126 -0.37701,0.58873 -0.0643,1.27353 0.5855,1.43918 13.53404,3.45032 10.25388,21.2416 -1.89446,21.2416 h -0.0522 c -6.45064,0.0269 -6.43532,-9.83509 0.0408,-9.8578 5.16061,-0.0181 7.06758,-6.8698 1.91771,-9.4728 -0.52897,-0.26737 -1.15838,0.0788 -1.29759,0.65784 -3.22163,13.39909 -21.18713,10.46696 -21.17494,-1.88464 0.006,-6.45694 9.9648,-6.56848 9.89914,0 -0.0475,4.75456 6.57887,7.38802 9.48211,1.90479 0.21063,-0.3978 9.3e-4,-1.12544 -0.78548,-1.29087 -12.68997,-2.66911 -11.0389,-21.17285 1.95802,-21.17184 z"
       id="path888"
       inkscape:connector-curvature="0" />
    <g
       id="g874"
       transform="matrix(1.1178511,0,0,1.1178511,-243.91453,15.60704)">
      <rect
         y="-204.50426"
         x="66.837624"
         height="72.076004"
         width="72.076004"
         id="rect815"
         style="opacity:1;fill:none;fill-opacity:0.08530806;stroke:#ffffff;stroke-width:0.991;stroke-linecap:round;stroke-linejoin:round;stroke-miterlimit:4;stroke-dasharray:none;stroke-dashoffset:0;stroke-opacity:0.1658768" />
      <rect
         style="opacity:1;fill:none;fill-opacity:0.08530806;stroke:#ffffff;stroke-width:0.991;stroke-linecap:round;stroke-linejoin:round;stroke-miterlimit:4;stroke-dasharray:none;stroke-dashoffset:0;stroke-opacity:0.1658768"
         id="rect817"
         width="72.076004"
         height="72.076004"
         x="66.837624"
         y="-132.43201" />
      <g
         style="stroke:#ffffff;stroke-opacity:0.1658768"
         transform="translate(0.13728282)"
         id="g825">
        <rect
           y="-204.50426"
           x="138.80421"
           height="72.076004"
           width="72.076004"
           id="rect819"
           style="opacity:1;fill:none;fill-opacity:0.08530806;stroke:#ffffff;stroke-width:0.991;stroke-linecap:round;stroke-linejoin:round;stroke-miterlimit:4;stroke-dasharray:none;stroke-dashoffset:0;stroke-opacity:0.1658768" />
        <rect
           style="opacity:1;fill:none;fill-opacity:0.08530806;stroke:#ffffff;stroke-width:0.991;stroke-linecap:round;stroke-linejoin:round;stroke-miterlimit:4;stroke-dasharray:none;stroke-dashoffset:0;stroke-opacity:0.1658768"
           id="rect821"
           width="72.076004"
           height="72.076004"
           x="138.80421"
           y="-132.43201" />
      </g>
    </g>
    <ellipse
       style="opacity:1;fill:none;fill-opacity:0.08530806;stroke:#ffffff;stroke-width:0.991;stroke-linecap:round;stroke-linejoin:round;stroke-miterlimit:4;stroke-dasharray:none;stroke-dashoffset:0;stroke-opacity:0.1658768"
       id="path827"
       cx="-122.00623"
       cy="-132.48288"
       rx="36.051937"
       ry="36.038002" />
    <ellipse
       ry="36.038002"
       rx="36.051937"
       cy="-132.48288"
       cx="-55.33123"
       id="ellipse829"
       style="opacity:1;fill:none;fill-opacity:0.08530806;stroke:#ffffff;stroke-width:0.991;stroke-linecap:round;stroke-linejoin:round;stroke-miterlimit:4;stroke-dasharray:none;stroke-dashoffset:0;stroke-opacity:0.1658768" />
    <ellipse
       ry="36.038002"
       rx="36.051937"
       cy="-165.82031"
       cx="-88.668777"
       id="ellipse831"
       style="opacity:1;fill:none;fill-opacity:0.08530806;stroke:#ffffff;stroke-width:0.991;stroke-linecap:round;stroke-linejoin:round;stroke-miterlimit:4;stroke-dasharray:none;stroke-dashoffset:0;stroke-opacity:0.1658768" />
    <ellipse
       style="opacity:1;fill:none;fill-opacity:0.08530806;stroke:#ffffff;stroke-width:0.991;stroke-linecap:round;stroke-linejoin:round;stroke-miterlimit:4;stroke-dasharray:none;stroke-dashoffset:0;stroke-opacity:0.1658768"
       id="ellipse833"
       cx="-88.668777"
       cy="-99.145302"
       rx="36.051937"
       ry="36.038002" />
    <g
       id="g841"
       style="stroke:#ffffff;stroke-opacity:0.1658768"
       transform="translate(-227.54175)">
      <circle
         r="16.651346"
         cy="-132.35532"
         cx="86.346054"
         id="path835"
         style="opacity:1;fill:none;fill-opacity:0.08530806;stroke:#ffffff;stroke-width:0.991;stroke-linecap:round;stroke-linejoin:round;stroke-miterlimit:4;stroke-dasharray:none;stroke-dashoffset:0;stroke-opacity:0.1658768" />
      <circle
         style="opacity:1;fill:none;fill-opacity:0.08530806;stroke:#ffffff;stroke-width:0.991;stroke-linecap:round;stroke-linejoin:round;stroke-miterlimit:4;stroke-dasharray:none;stroke-dashoffset:0;stroke-opacity:0.1658768"
         id="circle837"
         cx="119.42567"
         cy="-132.35532"
         r="16.651346" />
    </g>
    <g
       id="g847"
       transform="translate(-155.57504)"
       style="stroke:#ffffff;stroke-opacity:0.1658768">
      <circle
         style="opacity:1;fill:none;fill-opacity:0.08530806;stroke:#ffffff;stroke-width:0.991;stroke-linecap:round;stroke-linejoin:round;stroke-miterlimit:4;stroke-dasharray:none;stroke-dashoffset:0;stroke-opacity:0.1658768"
         id="circle843"
         cx="86.346054"
         cy="-132.35532"
         r="16.651346" />
      <circle
         r="16.651346"
         cy="-132.35532"
         cx="119.42567"
         id="circle845"
         style="opacity:1;fill:none;fill-opacity:0.08530806;stroke:#ffffff;stroke-width:0.991;stroke-linecap:round;stroke-linejoin:round;stroke-miterlimit:4;stroke-dasharray:none;stroke-dashoffset:0;stroke-opacity:0.1658768" />
    </g>
    <g
       transform="rotate(90,25.216793,-246.24439)"
       id="g853"
       style="stroke:#ffffff;stroke-opacity:0.1658768">
      <circle
         r="16.651346"
         cy="-132.35532"
         cx="86.346054"
         id="circle849"
         style="opacity:1;fill:none;fill-opacity:0.08530806;stroke:#ffffff;stroke-width:0.991;stroke-linecap:round;stroke-linejoin:round;stroke-miterlimit:4;stroke-dasharray:none;stroke-dashoffset:0;stroke-opacity:0.1658768" />
      <circle
         style="opacity:1;fill:none;fill-opacity:0.08530806;stroke:#ffffff;stroke-width:0.991;stroke-linecap:round;stroke-linejoin:round;stroke-miterlimit:4;stroke-dasharray:none;stroke-dashoffset:0;stroke-opacity:0.1658768"
         id="circle851"
         cx="119.42567"
         cy="-132.35532"
         r="16.651346" />
    </g>
    <g
       id="g859"
       transform="rotate(90,-10.884989,-210.14266)"
       style="stroke:#ffffff;stroke-opacity:0.1658768">
      <circle
         style="opacity:1;fill:none;fill-opacity:0.08530806;stroke:#ffffff;stroke-width:0.991;stroke-linecap:round;stroke-linejoin:round;stroke-miterlimit:4;stroke-dasharray:none;stroke-dashoffset:0;stroke-opacity:0.1658768"
         id="circle855"
         cx="86.346054"
         cy="-132.35532"
         r="16.651346" />
      <circle
         r="16.651346"
         cy="-132.35532"
         cx="119.42567"
         id="circle857"
         style="opacity:1;fill:none;fill-opacity:0.08530806;stroke:#ffffff;stroke-width:0.991;stroke-linecap:round;stroke-linejoin:round;stroke-miterlimit:4;stroke-dasharray:none;stroke-dashoffset:0;stroke-opacity:0.1658768" />
    </g>
    <circle
       style="opacity:1;fill:none;fill-opacity:0.08530806;stroke:#ffffff;stroke-width:0.991;stroke-linecap:round;stroke-linejoin:round;stroke-miterlimit:4;stroke-dasharray:none;stroke-dashoffset:0;stroke-opacity:0.1658768"
       id="path861"
       cx="-95.432472"
       cy="-127.36282"
       r="3.0689354" />
    <circle
       r="3.0689354"
       cy="-139.53365"
       cx="-93.844986"
       id="circle863"
       style="opacity:1;fill:none;fill-opacity:0.08530806;stroke:#ffffff;stroke-width:0.991;stroke-linecap:round;stroke-linejoin:round;stroke-miterlimit:4;stroke-dasharray:none;stroke-dashoffset:0;stroke-opacity:0.1658768" />
    <circle
       style="opacity:1;fill:none;fill-opacity:0.08530806;stroke:#ffffff;stroke-width:0.991;stroke-linecap:round;stroke-linejoin:round;stroke-miterlimit:4;stroke-dasharray:none;stroke-dashoffset:0;stroke-opacity:0.1658768"
       id="circle865"
       cx="-81.731812"
       cy="-137.65762"
       r="3.0689354" />
    <circle
       r="3.0689354"
       cy="-125.54449"
       cx="-83.550117"
       id="circle867"
       style="opacity:1;fill:none;fill-opacity:0.08530806;stroke:#ffffff;stroke-width:0.991;stroke-linecap:round;stroke-linejoin:round;stroke-miterlimit:4;stroke-dasharray:none;stroke-dashoffset:0;stroke-opacity:0.1658768" />
    <path
       style="fill:#ffff00;fill-opacity:0.28909954;stroke:#000000;stroke-width:0.26458332px;stroke-linecap:butt;stroke-linejoin:miter;stroke-opacity:1"
       d="m -88.8308,-63.095603 c -21.75908,0.09085 -21.70783,-33.174951 0.13719,-33.25155 17.407621,-0.06104 23.839718,-23.173557 6.468307,-31.953947 -1.78432,-0.90188 -3.906707,0.2666 -4.376277,2.2196 -10.867134,45.197452 -71.46853,35.306056 -71.42741,-6.35803 0.0215,-21.78039 33.61405,-22.15665 33.39257,0 -0.16032,16.03795 22.19044,24.9226 31.983563,6.42668 0.71048,-1.34185 0.004,-3.79755 -2.649321,-4.35557 -42.805482,-9.00335 -37.236102,-71.41844 6.604748,-71.41504 21.719828,0.002 22.616368,33.16135 0.0629,33.21538 -17.75022,0.0425 -23.25274,23.43561 -6.310398,31.94924 1.893111,0.9513 3.728791,-0.60671 4.132621,-2.45506 9.545644,-43.69094 71.450908,-35.83762 71.384478,6.56768 -0.0356,22.71607 -33.075673,22.28549 -33.251533,0.26294 -0.12157,-15.22339 -20.292457,-24.9532 -31.559612,-7.35833 -1.271716,1.98593 -0.21784,4.29599 1.973901,4.85474 45.652692,11.63854 34.588638,71.651267 -6.389807,71.651267 z"
       id="path884"
       inkscape:connector-curvature="0"
       sodipodi:nodetypes="cssssssssssssssssc" />
  </g>
</svg>
