<?xml version="1.0" encoding="UTF-8" standalone="no"?>
<!-- Created with Inkscape (http://www.inkscape.org/) -->

<svg
   xmlns:dc="http://purl.org/dc/elements/1.1/"
   xmlns:cc="http://creativecommons.org/ns#"
   xmlns:rdf="http://www.w3.org/1999/02/22-rdf-syntax-ns#"
   xmlns:svg="http://www.w3.org/2000/svg"
   xmlns="http://www.w3.org/2000/svg"
   xmlns:sodipodi="http://sodipodi.sourceforge.net/DTD/sodipodi-0.dtd"
   xmlns:inkscape="http://www.inkscape.org/namespaces/inkscape"
   width="1134"
   height="1700"
   viewBox="0 0 300.03749 449.79166"
   version="1.1"
   id="svg8"
   inkscape:version="0.92.3 (2405546, 2018-03-11)"
   sodipodi:docname="18-lauburugrama.svg"
   inkscape:export-filename="/home/txopi/Dokumentuak/irudiak/LaPiKo/kamisetak/Ez-dago-hodeirik/Ez dago hodeirik2.png"
   inkscape:export-xdpi="96"
   inkscape:export-ydpi="96">
  <defs
     id="defs2" />
  <sodipodi:namedview
     id="base"
     pagecolor="#262d36"
     bordercolor="#666666"
     borderopacity="1.0"
     inkscape:pageopacity="0"
     inkscape:pageshadow="2"
     inkscape:zoom="0.68783069"
     inkscape:cx="526.04104"
     inkscape:cy="1271.4358"
     inkscape:document-units="mm"
     inkscape:current-layer="layer1"
     showgrid="false"
     inkscape:window-width="1299"
     inkscape:window-height="713"
     inkscape:window-x="67"
     inkscape:window-y="27"
     inkscape:window-maximized="1"
     fit-margin-top="0"
     fit-margin-left="0"
     fit-margin-right="0"
     fit-margin-bottom="0"
     showguides="true"
     units="px" />
  <metadata
     id="metadata5">
    <rdf:RDF>
      <cc:Work
         rdf:about="">
        <dc:format>image/svg+xml</dc:format>
        <dc:type
           rdf:resource="http://purl.org/dc/dcmitype/StillImage" />
        <dc:title />
      </cc:Work>
    </rdf:RDF>
  </metadata>
  <g
     inkscape:label="Capa 1"
     inkscape:groupmode="layer"
     id="layer1"
     transform="translate(-24.982666,247.32069)">
    <rect
       style="opacity:1;fill:#ffff00;fill-opacity:0;stroke:none;stroke-width:2.97201324;stroke-linecap:round;stroke-linejoin:round;stroke-miterlimit:4;stroke-dasharray:none;stroke-dashoffset:0;stroke-opacity:1"
       id="rect516"
       width="250.45255"
       height="113.08712"
       x="47.253757"
       y="-191.99234"
       inkscape:export-xdpi="199.91031"
       inkscape:export-ydpi="199.91031" />
    <g
       id="g851">
      <path
         style="fill:none;fill-opacity:0.28909954;stroke:#f8f8f8;stroke-width:1.52999997;stroke-linecap:butt;stroke-linejoin:miter;stroke-miterlimit:4;stroke-dasharray:none;stroke-opacity:1"
         d="m 161.83536,-122.96703 c 1.86701,-0.0743 3.63532,-0.37818 2.29568,-2.52688 -3.0865,-4.95056 0.0515,-10.27624 5.16574,-10.3282 6.72947,-0.0684 9.21644,-8.95891 2.50064,-12.35342 -0.68983,-0.34866 -1.51033,0.1031 -1.69188,0.85811 -4.20123,17.47336 -27.62976,13.64935 -27.61387,-2.45802 0.008,-8.42032 12.99521,-8.56577 12.90958,0 -0.0619,6.20028 8.57885,9.63509 12.36487,2.48455 0.27467,-0.51876 0.002,-1.46813 -1.02423,-1.68386 -16.54862,-3.48071 -14.3955,-27.61042 2.55341,-27.6091 8.39689,7.8e-4 8.74349,12.82021 0.0242,12.84109 -6.86224,0.0166 -8.98953,9.06022 -2.4396,12.3516 0.73188,0.36777 1.44155,-0.23456 1.59768,-0.94913 3.69034,-16.89094 27.62295,-13.85485 27.59727,2.53906 -0.0133,8.78205 -12.78708,8.61559 -12.85506,0.10161 -0.047,-5.88537 -7.84508,-9.64693 -12.20096,-2.84474 -0.49165,0.76777 -0.0821,1.65273 0.76311,1.87686 14.30586,3.79361 13.06082,17.87188 7.65431,23.367"
         id="path826"
         inkscape:connector-curvature="0"
         sodipodi:nodetypes="cssssssssssssssssc" />
      <path
         sodipodi:nodetypes="ccccccccccc"
         inkscape:connector-curvature="0"
         id="path896"
         d="m 53.550577,-122.96708 9.263059,0.0865 c 4.3053,0.0289 6.193599,-6.08621 8.979394,-6.14388 1.927038,-0.0402 4.318455,6.07245 6.454704,6.05743 h 5.800079 c 1.964558,-0.14201 1.870988,1.0938 2.993586,4.50006 l 2.993602,-46.5569 6.080519,59.45035 c 5.51295,-18.42813 4.83991,-15.55012 12.4419,-15.66278 12.84555,-25.50532 9.00551,-1.57079 14.21631,-1.64428 l 10.10663,-0.0865"
         style="fill:none;stroke:#ffffff;stroke-width:1.53;stroke-linecap:round;stroke-linejoin:round;stroke-miterlimit:4;stroke-dasharray:none;stroke-opacity:1" />
      <path
         style="fill:none;stroke:#ffffff;stroke-width:1.53014219;stroke-linecap:round;stroke-linejoin:round;stroke-miterlimit:4;stroke-dasharray:none;stroke-opacity:1"
         d="m 132.92561,-122.96708 9.26306,0.0865 c 4.3053,0.0289 6.1936,-6.08621 8.9794,-6.14388 1.92704,-0.0402 4.31846,6.07245 6.45471,6.05743 h 4.21258 m 17.60089,-4.33347 c -3.68566,4.49291 2.44448,4.66869 8.49622,4.4767 12.84555,-25.50532 9.00551,0.0167 14.21631,-0.0568 l 10.10663,-0.0865"
         id="path902"
         inkscape:connector-curvature="0"
         sodipodi:nodetypes="ccccccccc" />
      <path
         sodipodi:nodetypes="ccccccccccc"
         inkscape:connector-curvature="0"
         id="path904"
         d="m 212.30066,-122.96708 9.26306,0.0865 c 4.3053,0.0289 6.1936,-6.08621 8.9794,-6.14388 1.92704,-0.0402 4.31846,6.07245 6.45471,6.05743 h 5.80008 c 1.96456,-0.14201 1.87099,1.0938 2.99359,4.50006 l 2.9936,-46.5569 6.08052,59.45035 c 5.51295,-18.42813 4.83991,-15.55012 12.4419,-15.66278 12.84555,-25.50532 9.00551,-1.57079 14.21631,-1.64428 l 10.10663,-0.0865"
         style="fill:none;stroke:#ffffff;stroke-width:1.53014219;stroke-linecap:round;stroke-linejoin:round;stroke-miterlimit:4;stroke-dasharray:none;stroke-opacity:1" />
    </g>
  </g>
</svg>
