<?xml version="1.0" encoding="UTF-8" standalone="no"?>
<!-- Created with Inkscape (http://www.inkscape.org/) -->

<svg
   xmlns:dc="http://purl.org/dc/elements/1.1/"
   xmlns:cc="http://creativecommons.org/ns#"
   xmlns:rdf="http://www.w3.org/1999/02/22-rdf-syntax-ns#"
   xmlns:svg="http://www.w3.org/2000/svg"
   xmlns="http://www.w3.org/2000/svg"
   xmlns:sodipodi="http://sodipodi.sourceforge.net/DTD/sodipodi-0.dtd"
   xmlns:inkscape="http://www.inkscape.org/namespaces/inkscape"
   width="1134"
   height="1700"
   viewBox="0 0 300.03749 449.79166"
   version="1.1"
   id="svg8"
   inkscape:version="0.92.3 (2405546, 2018-03-11)"
   sodipodi:docname="45-musika-nonahi.svg"
   inkscape:export-filename="/home/txopi/Dokumentuak/irudiak/LaPiKo/kamisetak/Ez-dago-hodeirik/Ez dago hodeirik2.png"
   inkscape:export-xdpi="96"
   inkscape:export-ydpi="96">
  <defs
     id="defs2" />
  <sodipodi:namedview
     id="base"
     pagecolor="#acacac"
     bordercolor="#666666"
     borderopacity="1.0"
     inkscape:pageopacity="0"
     inkscape:pageshadow="2"
     inkscape:zoom="0.67416263"
     inkscape:cx="646.73206"
     inkscape:cy="1332.3133"
     inkscape:document-units="mm"
     inkscape:current-layer="layer1"
     showgrid="false"
     inkscape:window-width="1299"
     inkscape:window-height="713"
     inkscape:window-x="67"
     inkscape:window-y="27"
     inkscape:window-maximized="1"
     fit-margin-top="0"
     fit-margin-left="0"
     fit-margin-right="0"
     fit-margin-bottom="0"
     showguides="true"
     units="px" />
  <metadata
     id="metadata5">
    <rdf:RDF>
      <cc:Work
         rdf:about="">
        <dc:format>image/svg+xml</dc:format>
        <dc:type
           rdf:resource="http://purl.org/dc/dcmitype/StillImage" />
        <dc:title></dc:title>
      </cc:Work>
    </rdf:RDF>
  </metadata>
  <g
     inkscape:label="Capa 1"
     inkscape:groupmode="layer"
     id="layer1"
     transform="translate(-24.982666,247.32069)">
    <g
       id="g926">
      <path
         sodipodi:nodetypes="cc"
         inkscape:connector-curvature="0"
         id="path827"
         d="M 66.54563,-171.20361 H 281.02621"
         style="fill:none;stroke:#666666;stroke-width:0.5;stroke-linecap:butt;stroke-linejoin:miter;stroke-miterlimit:4;stroke-dasharray:none;stroke-opacity:1" />
      <path
         style="fill:none;stroke:#666666;stroke-width:0.5;stroke-linecap:butt;stroke-linejoin:miter;stroke-miterlimit:4;stroke-dasharray:none;stroke-opacity:1"
         d="M 66.54563,-160.62027 H 281.02621"
         id="path829"
         inkscape:connector-curvature="0"
         sodipodi:nodetypes="cc" />
      <path
         sodipodi:nodetypes="cc"
         inkscape:connector-curvature="0"
         id="path831"
         d="M 66.54563,-150.03693 H 281.02621"
         style="fill:none;stroke:#666666;stroke-width:0.5;stroke-linecap:butt;stroke-linejoin:miter;stroke-miterlimit:4;stroke-dasharray:none;stroke-opacity:1" />
      <path
         style="fill:none;stroke:#666666;stroke-width:0.5;stroke-linecap:butt;stroke-linejoin:miter;stroke-miterlimit:4;stroke-dasharray:none;stroke-opacity:1"
         d="M 66.54563,-139.45359 H 281.02621"
         id="path833"
         inkscape:connector-curvature="0"
         sodipodi:nodetypes="cc" />
      <path
         sodipodi:nodetypes="cc"
         inkscape:connector-curvature="0"
         id="path835"
         d="M 66.54563,-128.87025 H 281.02621"
         style="fill:none;stroke:#666666;stroke-width:0.5;stroke-linecap:butt;stroke-linejoin:miter;stroke-miterlimit:4;stroke-dasharray:none;stroke-opacity:1" />
      <path
         sodipodi:nodetypes="ccccscsscccccc"
         inkscape:connector-curvature="0"
         id="path837"
         d="m 172.35461,-151.03143 c 0.96837,0.8564 0.45201,1.53476 -0.67308,2.48218 -0.9379,0.6772 0.54792,1.94925 1.30876,0.68941 l 1.31353,-1.89548 c 0.36182,-0.31156 1.73735,-0.69176 2.25803,-0.91902 0.26034,-0.11363 0.68203,-0.39172 0.53961,0.45193 l 0.52606,-0.0425 c 0.55843,-0.0452 -0.78461,-0.53178 -0.38364,-0.80111 0.88734,-0.59603 1.65939,-1.07915 1.67567,-2.49654 0.0535,-1.85241 -0.49154,-2.24792 1.31034,-2.61753 -0.40656,-0.10644 -0.60679,-0.25413 -1.43096,-0.27704 -0.32947,-0.76269 -1.67712,-0.37222 -2.17091,0.24122 -0.10043,0.80158 -0.90723,1.12325 -1.56789,1.8091 -0.71906,0.5768 -1.53365,1.44019 -2.70552,3.37542 z"
         style="fill:#666666;fill-opacity:1;stroke:#666666;stroke-width:0.26499999;stroke-linecap:round;stroke-linejoin:round;stroke-miterlimit:4;stroke-dasharray:none;stroke-opacity:1" />
      <path
         sodipodi:nodetypes="ccccccccccccccccc"
         inkscape:connector-curvature="0"
         id="path839"
         d="m 141.09689,-126.72448 c -0.17647,0.17904 -0.54017,0.37826 -0.76304,0.003 -0.34458,-0.0297 -0.26462,-0.28459 -0.38569,-0.45648 -0.32984,-0.10073 -0.33225,-0.42724 -0.22057,-0.57358 l 1.47198,-1.67739 c -0.21378,-0.27842 -0.65442,-0.45961 -0.27387,-0.99274 0.72193,-0.86577 1.62657,-2.17631 2.19089,-3.14939 0.58195,-0.99455 1.33506,-0.86162 1.91701,-0.89004 1.5089,-2.62264 3.1644,-0.4373 2.07223,0.91591 0.50837,1.12641 0.1892,2.36236 -0.55762,2.87938 -0.69397,0.48806 -0.77677,0.45264 -1.4119,0.79186 l 0.41079,0.89005 c 0.23496,0.47526 -0.11275,0.95364 -0.5135,-0.0342 l -0.31645,-0.63447 c -0.28093,0.12436 -0.85513,0.70342 -1.29246,1.11372 -0.24018,0.19915 -0.66138,-0.18212 -0.82158,-0.1027 z"
         style="fill:#666666;fill-opacity:1;stroke:#666666;stroke-width:0.26499999;stroke-linecap:round;stroke-linejoin:round;stroke-miterlimit:4;stroke-dasharray:none;stroke-opacity:1" />
      <path
         style="fill:#666666;fill-opacity:1;stroke:#666666;stroke-width:0.26499999;stroke-linecap:round;stroke-linejoin:round;stroke-miterlimit:4;stroke-dasharray:none;stroke-opacity:1"
         d="m 120.01398,-140.43282 c 0.96837,0.8564 0.45201,1.53476 -0.67308,2.48218 -0.9379,0.6772 0.54792,1.94925 1.30876,0.68941 l 1.31353,-1.89548 c 0.36182,-0.31156 1.73735,-0.69176 2.25803,-0.91902 0.26034,-0.11363 0.68203,-0.39172 0.53961,0.45193 l 0.52606,-0.0425 c 0.55843,-0.0452 -0.78461,-0.53178 -0.38364,-0.80111 0.88734,-0.59603 1.65939,-1.07915 1.67567,-2.49654 0.0535,-1.85241 -0.49154,-2.24792 1.31034,-2.61753 -0.40656,-0.10644 -0.60679,-0.25413 -1.43096,-0.27704 -0.32947,-0.76269 -1.67712,-0.37222 -2.17091,0.24122 -0.10043,0.80158 -0.90723,1.12325 -1.56789,1.8091 -0.71906,0.5768 -1.53365,1.44019 -2.70552,3.37542 z"
         id="path845"
         inkscape:connector-curvature="0"
         sodipodi:nodetypes="ccccscsscccccc" />
      <path
         style="fill:#666666;fill-opacity:1;stroke:#666666;stroke-width:0.26499999;stroke-linecap:round;stroke-linejoin:round;stroke-miterlimit:4;stroke-dasharray:none;stroke-opacity:1"
         d="m 109.75624,-137.27728 c -0.17647,0.17904 -0.54017,0.37826 -0.76304,0.003 -0.34458,-0.0297 -0.26462,-0.28459 -0.38569,-0.45648 -0.32984,-0.10073 -0.33225,-0.42724 -0.22057,-0.57358 l 1.47198,-1.67739 c -0.21378,-0.27842 -0.65442,-0.45961 -0.27387,-0.99274 0.72193,-0.86577 1.62657,-2.17631 2.19089,-3.14939 0.58195,-0.99455 1.33506,-0.86162 1.91701,-0.89004 1.5089,-2.62264 3.1644,-0.4373 2.07223,0.91591 0.50837,1.12641 0.1892,2.36236 -0.55762,2.87938 -0.69397,0.48806 -0.77677,0.45264 -1.4119,0.79186 l 0.41079,0.89005 c 0.23496,0.47526 -0.11275,0.95364 -0.5135,-0.0342 l -0.31645,-0.63447 c -0.28093,0.12436 -0.85513,0.70342 -1.29246,1.11372 -0.24018,0.19915 -0.66138,-0.18212 -0.82158,-0.1027 z"
         id="path847"
         inkscape:connector-curvature="0"
         sodipodi:nodetypes="ccccccccccccccccc" />
      <path
         style="fill:#666666;fill-opacity:1;stroke:#666666;stroke-width:0.26499999;stroke-linecap:round;stroke-linejoin:round;stroke-miterlimit:4;stroke-dasharray:none;stroke-opacity:1"
         d="m 78.716468,-129.92863 c 0.96837,0.8564 0.45201,1.53476 -0.67308,2.48218 -0.9379,0.6772 0.54792,1.94925 1.30876,0.68941 l 1.31353,-1.89548 c 0.36182,-0.31156 1.73735,-0.69176 2.25803,-0.91902 0.26034,-0.11363 0.68203,-0.39172 0.53961,0.45193 l 0.52606,-0.0425 c 0.55843,-0.0452 -0.78461,-0.53178 -0.38364,-0.80111 0.88734,-0.59603 1.65939,-1.07915 1.67567,-2.49654 0.0535,-1.85241 -0.49154,-2.24792 1.31034,-2.61753 -0.40656,-0.10644 -0.60679,-0.25413 -1.43096,-0.27704 -0.32947,-0.76269 -1.67712,-0.37222 -2.17091,0.24122 -0.10043,0.80158 -0.90723,1.12325 -1.56789,1.8091 -0.71906,0.5768 -1.53365,1.44019 -2.70552,3.37542 z"
         id="path849"
         inkscape:connector-curvature="0"
         sodipodi:nodetypes="ccccscsscccccc" />
      <path
         style="fill:#666666;fill-opacity:1;stroke:#666666;stroke-width:0.26499999;stroke-linecap:round;stroke-linejoin:round;stroke-miterlimit:4;stroke-dasharray:none;stroke-opacity:1"
         d="m 94.630901,-158.57757 c -0.17647,0.17904 -0.54017,0.37826 -0.76304,0.003 -0.34458,-0.0297 -0.26462,-0.28459 -0.38569,-0.45648 -0.32984,-0.10073 -0.33225,-0.42724 -0.22057,-0.57358 l 1.47198,-1.67739 c -0.21378,-0.27842 -0.65442,-0.45961 -0.27387,-0.99274 0.72193,-0.86577 1.62657,-2.17631 2.19089,-3.14939 0.58195,-0.99455 1.33506,-0.86162 1.91701,-0.89004 1.508899,-2.62264 3.164399,-0.4373 2.072229,0.91591 0.50837,1.12641 0.1892,2.36236 -0.55762,2.87938 -0.693969,0.48806 -0.776769,0.45264 -1.411899,0.79186 l 0.41079,0.89005 c 0.23496,0.47526 -0.11275,0.95364 -0.5135,-0.0342 l -0.31645,-0.63447 c -0.28093,0.12436 -0.85513,0.70342 -1.29246,1.11372 -0.24018,0.19915 -0.66138,-0.18212 -0.82158,-0.1027 z"
         id="path851"
         inkscape:connector-curvature="0"
         sodipodi:nodetypes="ccccccccccccccccc" />
      <path
         style="fill:#666666;fill-opacity:1;stroke:#666666;stroke-width:0.26499999;stroke-linecap:round;stroke-linejoin:round;stroke-miterlimit:4;stroke-dasharray:none;stroke-opacity:1"
         d="m 257.82971,-140.55953 c 0.96837,0.8564 0.45201,1.53476 -0.67308,2.48218 -0.9379,0.6772 0.54792,1.94925 1.30876,0.68941 l 1.31353,-1.89548 c 0.36182,-0.31156 1.73735,-0.69176 2.25803,-0.91902 0.26034,-0.11363 0.68203,-0.39172 0.53961,0.45193 l 0.52606,-0.0425 c 0.55843,-0.0452 -0.78461,-0.53178 -0.38364,-0.80111 0.88734,-0.59603 1.65939,-1.07915 1.67567,-2.49654 0.0535,-1.85241 -0.49154,-2.24792 1.31034,-2.61753 -0.40656,-0.10644 -0.60679,-0.25413 -1.43096,-0.27704 -0.32947,-0.76269 -1.67712,-0.37222 -2.17091,0.24122 -0.10043,0.80158 -0.90723,1.12325 -1.56789,1.8091 -0.71906,0.5768 -1.53365,1.44019 -2.70552,3.37542 z"
         id="path853"
         inkscape:connector-curvature="0"
         sodipodi:nodetypes="ccccscsscccccc" />
      <path
         style="fill:#666666;fill-opacity:1;stroke:#666666;stroke-width:0.26499999;stroke-linecap:round;stroke-linejoin:round;stroke-miterlimit:4;stroke-dasharray:none;stroke-opacity:1"
         d="m 216.97063,-169.09383 c -0.17647,0.17904 -0.54017,0.37826 -0.76304,0.003 -0.34458,-0.0297 -0.26462,-0.28459 -0.38569,-0.45648 -0.32984,-0.10073 -0.33225,-0.42724 -0.22057,-0.57358 l 1.47198,-1.67739 c -0.21378,-0.27842 -0.65442,-0.45961 -0.27387,-0.99274 0.72193,-0.86577 1.62657,-2.17631 2.19089,-3.14939 0.58195,-0.99455 1.33506,-0.86162 1.91701,-0.89004 1.5089,-2.62264 3.1644,-0.4373 2.07223,0.91591 0.50837,1.12641 0.1892,2.36236 -0.55762,2.87938 -0.69397,0.48806 -0.77677,0.45264 -1.4119,0.79186 l 0.41079,0.89005 c 0.23496,0.47526 -0.11275,0.95364 -0.5135,-0.0342 l -0.31645,-0.63447 c -0.28093,0.12436 -0.85513,0.70342 -1.29246,1.11372 -0.24018,0.19915 -0.66138,-0.18212 -0.82158,-0.1027 z"
         id="path855"
         inkscape:connector-curvature="0"
         sodipodi:nodetypes="ccccccccccccccccc" />
      <path
         style="fill:#666666;fill-opacity:1;stroke:#666666;stroke-width:0.26499999;stroke-linecap:round;stroke-linejoin:round;stroke-miterlimit:4;stroke-dasharray:none;stroke-opacity:1"
         d="m 226.07278,-161.66967 c 0.96837,0.8564 0.45201,1.53476 -0.67308,2.48218 -0.9379,0.6772 0.54792,1.94925 1.30876,0.68941 l 1.31353,-1.89548 c 0.36182,-0.31156 1.73735,-0.69176 2.25803,-0.91902 0.26034,-0.11363 0.68203,-0.39172 0.53961,0.45193 l 0.52606,-0.0425 c 0.55843,-0.0452 -0.78461,-0.53178 -0.38364,-0.80111 0.88734,-0.59603 1.65939,-1.07915 1.67567,-2.49654 0.0535,-1.85241 -0.49154,-2.24792 1.31034,-2.61753 -0.40656,-0.10644 -0.60679,-0.25413 -1.43096,-0.27704 -0.32947,-0.76269 -1.67712,-0.37222 -2.17091,0.24122 -0.10043,0.80158 -0.90723,1.12325 -1.56789,1.8091 -0.71906,0.5768 -1.53365,1.44019 -2.70552,3.37542 z"
         id="path857"
         inkscape:connector-curvature="0"
         sodipodi:nodetypes="ccccscsscccccc" />
      <text
         transform="rotate(-90)"
         xml:space="preserve"
         style="font-style:italic;font-variant:normal;font-weight:500;font-stretch:normal;font-size:7.84337091px;line-height:1.25;font-family:BodoniFLF;-inkscape-font-specification:'BodoniFLF Medium Italic';text-align:center;letter-spacing:4.41189575px;word-spacing:0px;text-anchor:middle;fill:#666666;fill-opacity:1;stroke:none;stroke-width:0.65361416;"
         x="149.76773"
         y="289.01208"
         id="text867"><tspan
           sodipodi:role="line"
           id="tspan865"
           x="151.97368"
           y="289.01208"
           style="font-style:italic;font-variant:normal;font-weight:500;font-stretch:normal;font-family:BodoniFLF;-inkscape-font-specification:'BodoniFLF Medium Italic';fill:#666666;fill-opacity:1;stroke-width:0.65361416;">musika</tspan><tspan
           id="tspan869"
           sodipodi:role="line"
           x="151.97368"
           y="298.81628"
           style="font-style:italic;font-variant:normal;font-weight:500;font-stretch:normal;font-family:BodoniFLF;-inkscape-font-specification:'BodoniFLF Medium Italic';fill:#666666;fill-opacity:1;stroke-width:0.65361416;">nonahi</tspan></text>
    </g>
    <rect
       style="opacity:1;fill:#808080;fill-opacity:0;stroke:none;stroke-width:0.26499999;stroke-linecap:round;stroke-linejoin:round;stroke-miterlimit:4;stroke-dasharray:none;stroke-dashoffset:0;stroke-opacity:0.13744076;paint-order:normal"
       id="rect890"
       width="237.83205"
       height="65.541183"
       x="64.228882"
       y="-184.49673"
       inkscape:export-xdpi="199.97186"
       inkscape:export-ydpi="199.97186" />
  </g>
</svg>
