<?xml version="1.0" encoding="UTF-8" standalone="no"?>
<!-- Created with Inkscape (http://www.inkscape.org/) -->

<svg
   xmlns:dc="http://purl.org/dc/elements/1.1/"
   xmlns:cc="http://creativecommons.org/ns#"
   xmlns:rdf="http://www.w3.org/1999/02/22-rdf-syntax-ns#"
   xmlns:svg="http://www.w3.org/2000/svg"
   xmlns="http://www.w3.org/2000/svg"
   xmlns:sodipodi="http://sodipodi.sourceforge.net/DTD/sodipodi-0.dtd"
   xmlns:inkscape="http://www.inkscape.org/namespaces/inkscape"
   width="1134"
   height="1700"
   viewBox="0 0 300.03749 449.79166"
   version="1.1"
   id="svg8"
   inkscape:version="0.92.3 (2405546, 2018-03-11)"
   sodipodi:docname="04-non-gogoa.svg"
   inkscape:export-filename="/home/txopi/Dokumentuak/sasiburu/kamisetak/04-non-gogoa/04-non-gogoa.png"
   inkscape:export-xdpi="100.00941"
   inkscape:export-ydpi="100.00941">
  <defs
     id="defs2" />
  <sodipodi:namedview
     id="base"
     pagecolor="#267336"
     bordercolor="#666666"
     borderopacity="1.0"
     inkscape:pageopacity="0"
     inkscape:pageshadow="2"
     inkscape:zoom="0.32470588"
     inkscape:cx="513.10507"
     inkscape:cy="850"
     inkscape:document-units="mm"
     inkscape:current-layer="layer1"
     showgrid="false"
     inkscape:window-width="1299"
     inkscape:window-height="713"
     inkscape:window-x="67"
     inkscape:window-y="27"
     inkscape:window-maximized="1"
     fit-margin-top="0"
     fit-margin-left="0"
     fit-margin-right="0"
     fit-margin-bottom="0"
     showguides="true"
     units="px" />
  <metadata
     id="metadata5">
    <rdf:RDF>
      <cc:Work
         rdf:about="">
        <dc:format>image/svg+xml</dc:format>
        <dc:type
           rdf:resource="http://purl.org/dc/dcmitype/StillImage" />
        <dc:title></dc:title>
      </cc:Work>
    </rdf:RDF>
  </metadata>
  <g
     inkscape:label="Capa 1"
     inkscape:groupmode="layer"
     id="layer1"
     transform="translate(-24.982666,247.32069)">
    <g
       id="g1004"
       style="fill:#1a1a1a;fill-opacity:1">
      <text
         transform="scale(1.451997,0.68870665)"
         xml:space="preserve"
         style="font-style:normal;font-variant:normal;font-weight:normal;font-stretch:normal;font-size:191.38139343px;line-height:0.80000001;font-family:'Pine Forest';-inkscape-font-specification:'Pine Forest';text-align:center;letter-spacing:0px;word-spacing:0px;text-anchor:middle;fill:#1a1a1a;fill-opacity:1;stroke:none;stroke-width:2.65807509"
         x="120.60625"
         y="-169.93602"
         id="text936"><tspan
           sodipodi:role="line"
           x="120.60625"
           y="-169.93602"
           style="font-style:normal;font-variant:normal;font-weight:normal;font-stretch:normal;font-family:'Pine Forest';-inkscape-font-specification:'Pine Forest';fill:#1a1a1a;fill-opacity:1;stroke-width:2.65807509"
           id="tspan934">NoN</tspan></text>
      <path
         inkscape:connector-curvature="0"
         id="path963"
         d="m 28.974201,-119.84547 19.957674,-1.49683 1.496826,-49.89418 4.989419,-0.99789 39.915348,51.39101 18.460852,1.99577 2.49471,-44.40582 3.49259,-41.41218 -23.949208,0.49894 4.989418,44.90477 -4.989418,1.99577 -2.993652,-1.49683 -45.40371,-45.90265 -13.47143,0.49894 z"
         style="fill:#1a1a1a;stroke:none;stroke-width:0.26458332px;stroke-linecap:butt;stroke-linejoin:miter;stroke-opacity:1;fill-opacity:1" />
      <path
         inkscape:connector-curvature="0"
         id="path965"
         d="m 157.7012,-195.68464 -4.98942,18.9598 5.98731,20.45661 1.99576,6.98519 8.98096,2.99365 5.48836,-0.49894 7.48413,-4.49048 5.9873,-15.4672 0.99788,-17.46296 -5.9873,-16.46508 22.95132,11.47566 6.48625,17.46296 -4.98942,21.95345 -14.96826,11.47566 -12.97249,3.49259 -12.97248,-0.49894 -12.47355,-3.49259 -13.47143,-15.96614 -4.49048,-20.95556 7.98307,-15.96614 z"
         style="fill:#1a1a1a;stroke:none;stroke-width:0.26458332px;stroke-linecap:butt;stroke-linejoin:miter;stroke-opacity:1;fill-opacity:1" />
      <path
         inkscape:connector-curvature="0"
         id="path967"
         d="m 233.04142,-121.3423 19.45873,2.99365 -1.49682,-49.89418 0.99788,-2.99365 4.49048,-0.99789 41.41217,52.3889 17.46298,0.49894 4.98941,-76.83705 -0.49896,-8.98095 h -22.9513 l 3.49258,44.90477 -2.99366,2.49471 -4.9894,-1.49683 -42.909,-45.40371 -13.97038,1.49683 z"
         style="fill:#1a1a1a;stroke:none;stroke-width:0.26458332px;stroke-linecap:butt;stroke-linejoin:miter;stroke-opacity:1;fill-opacity:1" />
    </g>
    <g
       id="g1013"
       style="fill:#1a1a1a;fill-opacity:1">
      <text
         id="text947"
         y="-14.408418"
         x="156.87334"
         style="font-style:normal;font-variant:normal;font-weight:normal;font-stretch:normal;font-size:148.48152161px;line-height:0.80000001;font-family:'Pine Forest';-inkscape-font-specification:'Pine Forest';text-align:center;letter-spacing:0px;word-spacing:0px;text-anchor:middle;fill:#1a1a1a;fill-opacity:1;stroke:none;stroke-width:2.06224346"
         xml:space="preserve"
         transform="scale(1.1265188,0.88769046)"><tspan
           id="tspan945"
           style="font-style:normal;font-variant:normal;font-weight:normal;font-stretch:normal;font-family:'Pine Forest';-inkscape-font-specification:'Pine Forest';fill:#1a1a1a;fill-opacity:1;stroke-width:2.06224346"
           y="-14.408418"
           x="156.87334"
           sodipodi:role="line">GoGoA</tspan></text>
      <path
         inkscape:connector-curvature="0"
         id="path969"
         d="m 42.445631,-86.915311 -2.494709,23.94921 3.991535,15.966141 12.972488,14.469314 10.976721,4.989417 2.993652,-7.983069 v -21.454499 l -10.976721,-2.993652 6.486244,-5.48836 16.465082,4.989417 0.49894,7.983072 -12.972488,35.424871 -5.987302,4.490477 -18.460849,-8.482013 -10.976721,-13.471429 -6.985186,-22.951326 1.995768,-19.458734 4.989418,-7.983069 z"
         style="fill:#1a1a1a;stroke:none;stroke-width:0.26458332px;stroke-linecap:butt;stroke-linejoin:miter;stroke-opacity:1;fill-opacity:1" />
      <path
         style="fill:#1a1a1a;stroke:none;stroke-width:0.26458332px;stroke-linecap:butt;stroke-linejoin:miter;stroke-opacity:1;fill-opacity:1"
         d="m 164.68318,-86.915311 -2.49471,23.94921 3.99153,15.966141 12.9725,14.469314 10.97672,4.989417 2.99366,-7.983069 v -21.454499 l -10.97673,-2.993652 6.48625,-5.48836 16.46509,4.989417 0.49894,7.983072 -12.97249,35.424871 -5.98731,4.490477 -18.46086,-8.482013 -10.97673,-13.471429 -6.98519,-22.951326 1.99577,-19.458734 4.98942,-7.983069 z"
         id="path971"
         inkscape:connector-curvature="0" />
      <path
         style="fill:#1a1a1a;stroke:none;stroke-width:0.20628053px;stroke-linecap:butt;stroke-linejoin:miter;stroke-opacity:1;fill-opacity:1"
         d="m 107.57222,-91.90473 -3.03279,18.9598 3.63935,20.45661 1.21311,6.98519 5.45901,2.99365 3.33606,-0.49894 4.54918,-4.49048 3.63934,-15.4672 0.60655,-17.46296 -3.63934,-16.46508 13.95081,11.47566 3.94262,17.46296 -3.03279,21.95345 -9.09835,11.47566 -7.88524,3.49259 -7.88523,-0.49894 -7.58196,-3.49259 -8.18852,-15.96614 -2.729508,-20.95556 4.852455,-15.96614 z"
         id="path973"
         inkscape:connector-curvature="0" />
      <path
         inkscape:connector-curvature="0"
         id="path975"
         d="m 229.28063,-91.90473 -3.03279,18.9598 3.63935,20.45661 1.21311,6.98519 5.45901,2.99365 3.33606,-0.49894 4.54918,-4.49048 3.63934,-15.4672 0.60655,-17.46296 -3.63934,-16.46508 13.95081,11.47566 3.94262,17.46296 -3.03279,21.95345 -9.09835,11.47566 -7.88524,3.49259 -7.88523,-0.49894 -7.58196,-3.49259 -8.18852,-15.96614 -2.72951,-20.95556 4.85245,-15.96614 z"
         style="fill:#1a1a1a;stroke:none;stroke-width:0.20628053px;stroke-linecap:butt;stroke-linejoin:miter;stroke-opacity:1;fill-opacity:1" />
      <path
         inkscape:connector-curvature="0"
         id="path981"
         d="m 267.46841,-14.56874 h 11.97461 l 4.98941,-23.450267 3.99154,-1.496824 10.47777,3.991533 2.99365,6.486244 2.99366,14.968257 15.96615,-0.498943 -19.45873,-87.31482 -7.48414,4.490472 -12.47355,38.917464 7.48413,-3.991533 1.99577,-2.494712 h 4.9894 l 2.49473,16.964025 -1.49682,3.991533 -6.48626,0.498944 h -4.49047 l -2.49471,-4.98942 -4.98942,-0.997884 z"
         style="fill:#1a1a1a;stroke:none;stroke-width:0.26458332px;stroke-linecap:butt;stroke-linejoin:miter;stroke-opacity:1;fill-opacity:1" />
    </g>
    <g
       id="g1030"
       style="fill:#1a1a1a;fill-opacity:1">
      <text
         transform="scale(0.99811495,1.0018886)"
         xml:space="preserve"
         style="font-style:normal;font-variant:normal;font-weight:normal;font-stretch:normal;font-size:131.55717468px;line-height:0.80000001;font-family:'Pine Forest';-inkscape-font-specification:'Pine Forest';text-align:center;letter-spacing:0px;word-spacing:0px;text-anchor:middle;fill:#1a1a1a;fill-opacity:1;stroke:none;stroke-width:1.82718301"
         x="175.39508"
         y="198.5016"
         id="text953"><tspan
           sodipodi:role="line"
           x="175.39508"
           y="198.5016"
           style="font-style:normal;font-variant:normal;font-weight:normal;font-stretch:normal;font-family:'Pine Forest';-inkscape-font-specification:'Pine Forest';fill:#1a1a1a;fill-opacity:1;stroke-width:1.82718301"
           id="tspan951">zANGoA</tspan></text>
      <path
         inkscape:connector-curvature="0"
         id="path985"
         d="m 137.86444,195.01151 9.229,2.99365 -0.70992,-49.89416 0.47328,-2.99364 2.12977,-0.99789 19.6412,52.38887 8.28245,0.49894 2.3664,-76.83701 -0.23666,-8.98095 h -10.88547 l 1.65648,44.90475 -1.41984,2.49471 -2.36641,-1.49683 -20.35112,-45.40369 -6.62596,1.49683 z"
         style="fill:#1a1a1a;stroke:none;stroke-width:0.1822143px;stroke-linecap:butt;stroke-linejoin:miter;stroke-opacity:1;fill-opacity:1" />
      <path
         inkscape:connector-curvature="0"
         id="path987"
         d="m 82.824712,197.15842 h 9.624451 l 4.01018,-23.45027 3.20815,-1.49682 8.421387,3.99153 2.40611,6.48624 2.40612,14.96826 12.83261,-0.49894 -15.63972,-87.31482 -6.0153,4.49047 -10.025468,38.91746 6.015278,-3.99153 1.60407,-2.49471 h 4.01018 l 2.00511,16.96402 -1.20305,3.99154 -5.21326,0.49894 h -3.609156 l -2.005093,-4.98942 -4.01019,-0.99788 z"
         style="fill:#1a1a1a;stroke:none;stroke-width:0.23720279px;stroke-linecap:butt;stroke-linejoin:miter;stroke-opacity:1;fill-opacity:1" />
      <path
         style="fill:#1a1a1a;stroke:none;stroke-width:0.23720279px;stroke-linecap:butt;stroke-linejoin:miter;stroke-opacity:1;fill-opacity:1"
         d="m 279.14566,197.15842 h 9.62446 l 4.01018,-23.45027 3.20815,-1.49682 8.42139,3.99153 2.40611,6.48624 2.40612,14.96826 12.83261,-0.49894 -15.63972,-87.31482 -6.0153,4.49047 -10.02547,38.91746 6.01528,-3.99153 1.60407,-2.49471 h 4.01018 l 2.00511,16.96402 -1.20305,3.99154 -5.21326,0.49894 h -3.60916 l -2.00509,-4.98942 -4.0102,-0.99788 z"
         id="path989"
         inkscape:connector-curvature="0" />
      <path
         style="fill:#1a1a1a;stroke:none;stroke-width:0.18524539px;stroke-linecap:butt;stroke-linejoin:miter;stroke-opacity:1;fill-opacity:1"
         d="m 250.23531,120.70496 -2.4458,18.9598 2.93497,20.45661 0.97831,6.98519 4.40242,2.99365 2.69038,-0.49894 3.66869,-4.49048 2.93495,-15.4672 0.48916,-17.46296 -2.93496,-16.46508 11.25065,11.47566 3.17954,17.46296 -2.4458,21.95345 -7.33738,11.47566 -6.35906,3.49259 -6.35906,-0.49894 -6.11449,-3.49259 -6.60365,-15.96614 -2.20121,-20.95556 3.91327,-15.96614 z"
         id="path991"
         inkscape:connector-curvature="0" />
      <path
         inkscape:connector-curvature="0"
         id="path993"
         d="m 199.70994,125.6037 -1.95531,23.94921 3.12849,15.96614 10.16763,14.46931 8.60338,4.98942 2.34639,-7.98307 v -21.4545 l -8.60338,-2.99365 5.08381,-5.48836 12.90508,4.98942 0.39105,7.98307 -10.16762,35.42487 -4.69276,4.49048 -14.46933,-8.48201 -8.60338,-13.47143 -5.47488,-22.95133 1.56425,-19.45873 3.91063,-7.98307 z"
         style="fill:#1a1a1a;stroke:none;stroke-width:0.23423977px;stroke-linecap:butt;stroke-linejoin:miter;stroke-opacity:1;fill-opacity:1" />
      <path
         inkscape:connector-curvature="0"
         id="path995"
         d="m 57.912829,111.66356 0.997884,4.98941 -30.435454,79.33177 4.989419,1.99575 16.964023,0.49895 0.498942,-4.98943 -5.987302,-3.99153 2.993651,-10.97672 20.955558,-65.36139 0.498941,-5.98729 -12.972487,0.99788 z"
         style="fill:#1a1a1a;stroke:none;stroke-width:0.26458332px;stroke-linecap:butt;stroke-linejoin:miter;stroke-opacity:1;fill-opacity:1" />
    </g>
    <g
       id="g1020"
       style="fill:#1a1a1a;fill-opacity:1">
      <text
         id="text957"
         y="131.89391"
         x="123.53362"
         style="font-style:normal;font-variant:normal;font-weight:normal;font-stretch:normal;font-size:186.8419342px;line-height:0.80000001;font-family:'Pine Forest';-inkscape-font-specification:'Pine Forest';text-align:center;letter-spacing:0px;word-spacing:0px;text-anchor:middle;fill:#1a1a1a;fill-opacity:1;stroke:none;stroke-width:2.59502697"
         xml:space="preserve"
         transform="scale(1.4175564,0.7054393)"><tspan
           id="tspan955"
           style="font-style:normal;font-variant:normal;font-weight:normal;font-stretch:normal;font-family:'Pine Forest';-inkscape-font-specification:'Pine Forest';fill:#1a1a1a;fill-opacity:1;stroke-width:2.59502697"
           y="131.89391"
           x="123.53362"
           sodipodi:role="line">HAN</tspan></text>
      <path
         style="fill:#1a1a1a;stroke:none;stroke-width:0.25691259px;stroke-linecap:butt;stroke-linejoin:miter;stroke-opacity:1;fill-opacity:1"
         d="m 237.15387,88.736893 18.3468,2.993646 -1.41129,-49.894153 0.94086,-2.993647 4.23388,-0.99789 39.04576,52.38887 16.4651,0.49894 4.7043,-76.837004 -0.47045,-8.980949 h -21.63979 l 3.293,44.904747 -2.82259,2.494707 -4.7043,-1.496826 -40.45705,-45.403688 -13.17208,1.49683 z"
         id="path977"
         inkscape:connector-curvature="0" />
      <path
         style="fill:#1a1a1a;stroke:none;stroke-width:0.32656103px;stroke-linecap:butt;stroke-linejoin:miter;stroke-opacity:1;fill-opacity:1"
         d="m 127.26574,91.206937 h 18.24169 l 7.60069,-23.450267 6.08057,-1.496824 15.96146,3.991533 4.56042,6.486244 4.56044,14.968257 24.32226,-0.498943 -29.64273,-87.3148208 -11.40108,4.490472 -19.00176,38.9174648 11.40106,-3.991533 3.04028,-2.494712 h 7.60068 l 3.80038,16.964025 -2.2802,3.991533 -9.88094,0.498944 h -6.84062 l -3.80035,-4.98942 -7.60071,-0.997884 z"
         id="path983"
         inkscape:connector-curvature="0" />
      <path
         inkscape:connector-curvature="0"
         id="path997"
         d="m 30.969968,90.209058 21.953441,0.997876 -2.494708,-42.908987 3.492592,-1.995778 h 22.452385 l 2.993652,3.492579 V 90.707983 L 99.823945,92.20481 97.329236,76.238688 96.830293,23.849786 83.857807,17.862477 l -5.987304,20.45663 -4.989417,1.995753 -19.458734,-0.997877 -5.48836,-2.993654 0.997883,-22.452383 -15.467197,4.490482 -2.993652,28.938617 1.995768,31.433346 z"
         style="fill:#1a1a1a;stroke:none;stroke-width:0.26458332px;stroke-linecap:butt;stroke-linejoin:miter;stroke-opacity:1;fill-opacity:1" />
    </g>
  </g>
</svg>
