<?xml version="1.0" encoding="UTF-8" standalone="no"?>
<!-- Created with Inkscape (http://www.inkscape.org/) -->

<svg
   xmlns:dc="http://purl.org/dc/elements/1.1/"
   xmlns:cc="http://creativecommons.org/ns#"
   xmlns:rdf="http://www.w3.org/1999/02/22-rdf-syntax-ns#"
   xmlns:svg="http://www.w3.org/2000/svg"
   xmlns="http://www.w3.org/2000/svg"
   xmlns:sodipodi="http://sodipodi.sourceforge.net/DTD/sodipodi-0.dtd"
   xmlns:inkscape="http://www.inkscape.org/namespaces/inkscape"
   width="940"
   height="340"
   viewBox="0 0 248.70833 89.958332"
   version="1.1"
   id="svg8"
   inkscape:version="0.92.3 (2405546, 2018-03-11)"
   sodipodi:docname="bannerra.svg"
   inkscape:export-filename="/home/txopi/Dokumentuak/sasiburu/kamisetak/bannerra/materiala/markoa.png"
   inkscape:export-xdpi="96"
   inkscape:export-ydpi="96">
  <defs
     id="defs2">
    <filter
       inkscape:collect="always"
       style="color-interpolation-filters:sRGB"
       id="filter851"
       x="-0.016445"
       width="1.03289"
       y="-0.04439595"
       height="1.0887918">
      <feGaussianBlur
         inkscape:collect="always"
         stdDeviation="1.4255384"
         id="feGaussianBlur853" />
    </filter>
  </defs>
  <sodipodi:namedview
     id="base"
     pagecolor="#2b7e00"
     bordercolor="#666666"
     borderopacity="1.0"
     inkscape:pageopacity="0"
     inkscape:pageshadow="2"
     inkscape:zoom="0.73888915"
     inkscape:cx="474.779"
     inkscape:cy="251.72928"
     inkscape:document-units="mm"
     inkscape:current-layer="layer2"
     showgrid="false"
     inkscape:window-width="1299"
     inkscape:window-height="713"
     inkscape:window-x="67"
     inkscape:window-y="27"
     inkscape:window-maximized="1"
     fit-margin-top="0"
     fit-margin-left="0"
     fit-margin-right="0"
     fit-margin-bottom="0"
     showguides="true"
     units="px" />
  <metadata
     id="metadata5">
    <rdf:RDF>
      <cc:Work
         rdf:about="">
        <dc:format>image/svg+xml</dc:format>
        <dc:type
           rdf:resource="http://purl.org/dc/dcmitype/StillImage" />
        <dc:title />
      </cc:Work>
    </rdf:RDF>
  </metadata>
  <g
     inkscape:label="Markoa"
     inkscape:groupmode="layer"
     id="layer1"
     transform="translate(-46.548355,210.18849)"
     style="display:inline"
     sodipodi:insensitive="true">
    <rect
       style="opacity:1;fill:#800000;fill-opacity:1;stroke:none;stroke-width:3.74914408;stroke-linecap:round;stroke-linejoin:round;stroke-miterlimit:4;stroke-dasharray:none;stroke-dashoffset:0;stroke-opacity:1;paint-order:normal"
       id="rect8"
       width="248.70833"
       height="89.958336"
       x="46.548355"
       y="-310.7301" />
    <rect
       style="opacity:1;fill:#fafa59;fill-opacity:1;stroke:#fafafa;stroke-width:0.97009552;stroke-linecap:round;stroke-linejoin:round;stroke-miterlimit:4;stroke-dasharray:none;stroke-dashoffset:0;stroke-opacity:1;paint-order:normal"
       id="rect815"
       width="30.118446"
       height="28.663237"
       x="47.668339"
       y="-250.44937"
       ry="6.4475441" />
    <rect
       ry="6.4475441"
       y="-250.44937"
       x="78.571556"
       height="28.663237"
       width="30.118446"
       id="rect849"
       style="opacity:1;fill:#fafa59;fill-opacity:1;stroke:#fafafa;stroke-width:0.97009552;stroke-linecap:round;stroke-linejoin:round;stroke-miterlimit:4;stroke-dasharray:none;stroke-dashoffset:0;stroke-opacity:1;paint-order:normal" />
    <rect
       style="opacity:1;fill:#fafa59;fill-opacity:1;stroke:#fafafa;stroke-width:0.97009552;stroke-linecap:round;stroke-linejoin:round;stroke-miterlimit:4;stroke-dasharray:none;stroke-dashoffset:0;stroke-opacity:1;paint-order:normal"
       id="rect851"
       width="30.118446"
       height="28.663237"
       x="109.47475"
       y="-250.44937"
       ry="6.4475441" />
    <rect
       ry="6.4475441"
       y="-250.44937"
       x="140.37798"
       height="28.663237"
       width="30.118446"
       id="rect853"
       style="opacity:1;fill:#fafa59;fill-opacity:1;stroke:#fafafa;stroke-width:0.97009552;stroke-linecap:round;stroke-linejoin:round;stroke-miterlimit:4;stroke-dasharray:none;stroke-dashoffset:0;stroke-opacity:1;paint-order:normal" />
    <rect
       style="opacity:1;fill:#fafa59;fill-opacity:1;stroke:#fafafa;stroke-width:0.97009552;stroke-linecap:round;stroke-linejoin:round;stroke-miterlimit:4;stroke-dasharray:none;stroke-dashoffset:0;stroke-opacity:1;paint-order:normal"
       id="rect855"
       width="30.118446"
       height="28.663237"
       x="171.28123"
       y="-250.44937"
       ry="6.4475441" />
    <rect
       ry="6.4475441"
       y="-250.44937"
       x="202.18449"
       height="28.663237"
       width="30.118446"
       id="rect857"
       style="opacity:1;fill:#fafa59;fill-opacity:1;stroke:#fafafa;stroke-width:0.97009552;stroke-linecap:round;stroke-linejoin:round;stroke-miterlimit:4;stroke-dasharray:none;stroke-dashoffset:0;stroke-opacity:1;paint-order:normal" />
    <rect
       style="opacity:1;fill:#fafa59;fill-opacity:1;stroke:#fafafa;stroke-width:0.97009552;stroke-linecap:round;stroke-linejoin:round;stroke-miterlimit:4;stroke-dasharray:none;stroke-dashoffset:0;stroke-opacity:1;paint-order:normal"
       id="rect859"
       width="30.118446"
       height="28.663237"
       x="233.08775"
       y="-250.44937"
       ry="6.4475441" />
    <rect
       ry="6.4475441"
       y="-250.44937"
       x="263.99097"
       height="28.663237"
       width="30.118446"
       id="rect861"
       style="opacity:1;fill:#fafa59;fill-opacity:1;stroke:#fafafa;stroke-width:0.97009552;stroke-linecap:round;stroke-linejoin:round;stroke-miterlimit:4;stroke-dasharray:none;stroke-dashoffset:0;stroke-opacity:1;paint-order:normal" />
    <rect
       ry="6.4475441"
       y="-280.08261"
       x="47.668339"
       height="28.663237"
       width="30.118446"
       id="rect863"
       style="opacity:1;fill:#fafa59;fill-opacity:1;stroke:#fafafa;stroke-width:0.97009552;stroke-linecap:round;stroke-linejoin:round;stroke-miterlimit:4;stroke-dasharray:none;stroke-dashoffset:0;stroke-opacity:1;paint-order:normal" />
    <rect
       style="opacity:1;fill:#fafa59;fill-opacity:1;stroke:#fafafa;stroke-width:0.97009552;stroke-linecap:round;stroke-linejoin:round;stroke-miterlimit:4;stroke-dasharray:none;stroke-dashoffset:0;stroke-opacity:1;paint-order:normal"
       id="rect865"
       width="30.118446"
       height="28.663237"
       x="78.571556"
       y="-280.08261"
       ry="6.4475441" />
    <rect
       ry="6.4475441"
       y="-280.08261"
       x="109.47475"
       height="28.663237"
       width="30.118446"
       id="rect867"
       style="opacity:1;fill:#fafa59;fill-opacity:1;stroke:#fafafa;stroke-width:0.97009552;stroke-linecap:round;stroke-linejoin:round;stroke-miterlimit:4;stroke-dasharray:none;stroke-dashoffset:0;stroke-opacity:1;paint-order:normal" />
    <rect
       style="opacity:1;fill:#fafa59;fill-opacity:1;stroke:#fafafa;stroke-width:0.97009552;stroke-linecap:round;stroke-linejoin:round;stroke-miterlimit:4;stroke-dasharray:none;stroke-dashoffset:0;stroke-opacity:1;paint-order:normal"
       id="rect869"
       width="30.118446"
       height="28.663237"
       x="140.37798"
       y="-280.08261"
       ry="6.4475441" />
    <rect
       ry="6.4475441"
       y="-280.08261"
       x="171.28123"
       height="28.663237"
       width="30.118446"
       id="rect871"
       style="opacity:1;fill:#fafa59;fill-opacity:1;stroke:#fafafa;stroke-width:0.97009552;stroke-linecap:round;stroke-linejoin:round;stroke-miterlimit:4;stroke-dasharray:none;stroke-dashoffset:0;stroke-opacity:1;paint-order:normal" />
    <rect
       style="opacity:1;fill:#fafa59;fill-opacity:1;stroke:#fafafa;stroke-width:0.97009552;stroke-linecap:round;stroke-linejoin:round;stroke-miterlimit:4;stroke-dasharray:none;stroke-dashoffset:0;stroke-opacity:1;paint-order:normal"
       id="rect873"
       width="30.118446"
       height="28.663237"
       x="202.18449"
       y="-280.08261"
       ry="6.4475441" />
    <rect
       ry="6.4475441"
       y="-280.08261"
       x="233.08775"
       height="28.663237"
       width="30.118446"
       id="rect875"
       style="opacity:1;fill:#fafa59;fill-opacity:1;stroke:#fafafa;stroke-width:0.97009552;stroke-linecap:round;stroke-linejoin:round;stroke-miterlimit:4;stroke-dasharray:none;stroke-dashoffset:0;stroke-opacity:1;paint-order:normal" />
    <rect
       style="opacity:1;fill:#fafa59;fill-opacity:1;stroke:#fafafa;stroke-width:0.97009552;stroke-linecap:round;stroke-linejoin:round;stroke-miterlimit:4;stroke-dasharray:none;stroke-dashoffset:0;stroke-opacity:1;paint-order:normal"
       id="rect877"
       width="30.118446"
       height="28.663237"
       x="263.99097"
       y="-280.08261"
       ry="6.4475441" />
    <rect
       style="opacity:1;fill:#fafa59;fill-opacity:1;stroke:#fafafa;stroke-width:0.97009552;stroke-linecap:round;stroke-linejoin:round;stroke-miterlimit:4;stroke-dasharray:none;stroke-dashoffset:0;stroke-opacity:1;paint-order:normal"
       id="rect879"
       width="30.118446"
       height="28.663237"
       x="47.668339"
       y="-309.71585"
       ry="6.4475441" />
    <rect
       ry="6.4475441"
       y="-309.71585"
       x="78.571556"
       height="28.663237"
       width="30.118446"
       id="rect881"
       style="opacity:1;fill:#fafa59;fill-opacity:1;stroke:#fafafa;stroke-width:0.97009552;stroke-linecap:round;stroke-linejoin:round;stroke-miterlimit:4;stroke-dasharray:none;stroke-dashoffset:0;stroke-opacity:1;paint-order:normal" />
    <rect
       style="opacity:1;fill:#fafa59;fill-opacity:1;stroke:#fafafa;stroke-width:0.97009552;stroke-linecap:round;stroke-linejoin:round;stroke-miterlimit:4;stroke-dasharray:none;stroke-dashoffset:0;stroke-opacity:1;paint-order:normal"
       id="rect883"
       width="30.118446"
       height="28.663237"
       x="109.47475"
       y="-309.71585"
       ry="6.4475441" />
    <rect
       ry="6.4475441"
       y="-309.71585"
       x="140.37798"
       height="28.663237"
       width="30.118446"
       id="rect885"
       style="opacity:1;fill:#fafa59;fill-opacity:1;stroke:#fafafa;stroke-width:0.97009552;stroke-linecap:round;stroke-linejoin:round;stroke-miterlimit:4;stroke-dasharray:none;stroke-dashoffset:0;stroke-opacity:1;paint-order:normal" />
    <rect
       style="opacity:1;fill:#fafa59;fill-opacity:1;stroke:#fafafa;stroke-width:0.97009552;stroke-linecap:round;stroke-linejoin:round;stroke-miterlimit:4;stroke-dasharray:none;stroke-dashoffset:0;stroke-opacity:1;paint-order:normal"
       id="rect887"
       width="30.118446"
       height="28.663237"
       x="171.28123"
       y="-309.71585"
       ry="6.4475441" />
    <rect
       ry="6.4475441"
       y="-309.71585"
       x="202.18449"
       height="28.663237"
       width="30.118446"
       id="rect889"
       style="opacity:1;fill:#fafa59;fill-opacity:1;stroke:#fafafa;stroke-width:0.97009552;stroke-linecap:round;stroke-linejoin:round;stroke-miterlimit:4;stroke-dasharray:none;stroke-dashoffset:0;stroke-opacity:1;paint-order:normal" />
    <rect
       style="opacity:1;fill:#fafa59;fill-opacity:1;stroke:#fafafa;stroke-width:0.97009552;stroke-linecap:round;stroke-linejoin:round;stroke-miterlimit:4;stroke-dasharray:none;stroke-dashoffset:0;stroke-opacity:1;paint-order:normal"
       id="rect891"
       width="30.118446"
       height="28.663237"
       x="233.08775"
       y="-309.71585"
       ry="6.4475441" />
    <rect
       ry="6.4475441"
       y="-309.71585"
       x="263.99097"
       height="28.663237"
       width="30.118446"
       id="rect893"
       style="opacity:1;fill:#fafa59;fill-opacity:1;stroke:#fafafa;stroke-width:0.97009552;stroke-linecap:round;stroke-linejoin:round;stroke-miterlimit:4;stroke-dasharray:none;stroke-dashoffset:0;stroke-opacity:1;paint-order:normal" />
    <path
       style="opacity:1;fill:#fafafa;fill-opacity:1;stroke:none;stroke-width:3.74914408;stroke-linecap:round;stroke-linejoin:round;stroke-miterlimit:4;stroke-dasharray:none;stroke-dashoffset:0;stroke-opacity:1;paint-order:normal"
       d="m 46.548355,-210.18855 v 89.95838 H 295.25669 v -89.95838 z m 7.567497,1.01441 H 71.33909 c 3.571939,0 6.447669,2.87579 6.447669,6.44766 v 15.76804 c 0,3.57194 -2.87573,6.44767 -6.447669,6.44767 H 54.115852 c -3.571934,0 -6.447669,-2.87573 -6.447669,-6.44767 v -15.76804 c 0,-3.57187 2.875735,-6.44766 6.447669,-6.44766 z m 30.903022,0 h 17.223756 c 3.57194,0 6.44715,2.87578 6.44715,6.44766 v 15.76804 c 0,3.57194 -2.87521,6.44767 -6.44715,6.44767 H 85.018874 c -3.571938,0 -6.447152,-2.87573 -6.447152,-6.44767 v -15.76804 c 0,-3.57188 2.875214,-6.44766 6.447152,-6.44766 z m 30.903536,0 h 17.22324 c 3.57189,0 6.44767,2.87578 6.44767,6.44766 v 15.76804 c 0,3.57194 -2.87578,6.44767 -6.44767,6.44767 h -17.22324 c -3.57193,0 -6.44766,-2.87573 -6.44766,-6.44767 v -15.76804 c 0,-3.57188 2.87573,-6.44766 6.44766,-6.44766 z m 30.90303,0 h 17.22323 c 3.57195,0 6.44767,2.87578 6.44767,6.44766 v 15.76804 c 0,3.57194 -2.87572,6.44767 -6.44767,6.44767 h -17.22323 c -3.57194,0 -6.44767,-2.87573 -6.44767,-6.44767 v -15.76804 c 0,-3.57188 2.87573,-6.44766 6.44767,-6.44766 z m 30.90354,0 h 17.22323 c 3.57194,0 6.44767,2.87578 6.44767,6.44766 v 15.76804 c 0,3.57194 -2.87573,6.44767 -6.44767,6.44767 h -17.22323 c -3.57194,0 -6.44767,-2.87573 -6.44767,-6.44767 v -15.76804 c 0,-3.57188 2.87573,-6.44766 6.44767,-6.44766 z m 30.90302,0 h 17.22324 c 3.57194,0 6.44767,2.87577 6.44767,6.44766 v 15.76804 c 0,3.57194 -2.87573,6.44767 -6.44767,6.44767 H 208.632 c -3.57194,0 -6.44767,-2.87573 -6.44767,-6.44767 v -15.76804 c 0,-3.57189 2.87573,-6.44766 6.44767,-6.44766 z m 30.90354,0 h 17.22324 c 3.57194,0 6.44766,2.87577 6.44766,6.44766 v 15.76804 c 0,3.57194 -2.87572,6.44767 -6.44766,6.44767 h -17.22324 c -3.57194,0 -6.44767,-2.87573 -6.44767,-6.44767 v -15.76804 c 0,-3.57189 2.87573,-6.44766 6.44767,-6.44766 z m 30.90302,0 h 17.22324 c 3.57194,0 6.44767,2.87577 6.44767,6.44766 v 15.76804 c 0,3.57194 -2.87573,6.44767 -6.44767,6.44767 h -17.22324 c -3.57194,0 -6.44767,-2.87573 -6.44767,-6.44767 v -15.76804 c 0,-3.57189 2.87573,-6.44766 6.44767,-6.44766 z M 54.115852,-179.5408 H 71.33909 c 3.571939,0 6.447669,2.87522 6.447669,6.44716 v 15.76855 c 0,3.57194 -2.87573,6.44716 -6.447669,6.44716 H 54.115852 c -3.571936,0 -6.447669,-2.87522 -6.447669,-6.44716 v -15.76855 c 0,-3.57194 2.875733,-6.44716 6.447669,-6.44716 z m 30.903022,0 h 17.223756 c 3.57194,0 6.44715,2.87522 6.44715,6.44716 v 15.76855 c 0,3.57194 -2.87521,6.44716 -6.44715,6.44716 H 85.018874 c -3.571938,0 -6.447152,-2.87522 -6.447152,-6.44716 v -15.76855 c 0,-3.57194 2.875214,-6.44716 6.447152,-6.44716 z m 30.903536,0 h 17.22324 c 3.57191,0 6.44767,2.87522 6.44767,6.44716 v 15.76855 c 0,3.57194 -2.87576,6.44716 -6.44767,6.44716 h -17.22324 c -3.57193,0 -6.44766,-2.87522 -6.44766,-6.44716 v -15.76855 c 0,-3.57194 2.87573,-6.44716 6.44766,-6.44716 z m 30.90303,0 h 17.22323 c 3.57195,0 6.44767,2.87522 6.44767,6.44716 v 15.76855 c 0,3.57194 -2.87572,6.44716 -6.44767,6.44716 h -17.22323 c -3.57194,0 -6.44767,-2.87522 -6.44767,-6.44716 v -15.76855 c 0,-3.57194 2.87573,-6.44716 6.44767,-6.44716 z m 30.90354,0 h 17.22323 c 3.57194,0 6.44767,2.87522 6.44767,6.44716 v 15.76855 c 0,3.57194 -2.87573,6.44716 -6.44767,6.44716 h -17.22323 c -3.57194,0 -6.44767,-2.87522 -6.44767,-6.44716 v -15.76855 c 0,-3.57194 2.87573,-6.44716 6.44767,-6.44716 z m 30.90302,0 h 17.22324 c 3.57194,0 6.44767,2.87522 6.44767,6.44716 v 15.76855 c 0,3.57194 -2.87573,6.44716 -6.44767,6.44716 H 208.632 c -3.57194,0 -6.44767,-2.87522 -6.44767,-6.44716 v -15.76855 c 0,-3.57194 2.87573,-6.44716 6.44767,-6.44716 z m 30.90354,0 h 17.22324 c 3.57194,0 6.44766,2.87522 6.44766,6.44716 v 15.76855 c 0,3.57194 -2.87572,6.44716 -6.44766,6.44716 h -17.22324 c -3.57194,0 -6.44767,-2.87522 -6.44767,-6.44716 v -15.76855 c 0,-3.57194 2.87573,-6.44716 6.44767,-6.44716 z m 30.90302,0 h 17.22324 c 3.57194,0 6.44767,2.87522 6.44767,6.44716 v 15.76855 c 0,3.57194 -2.87573,6.44716 -6.44767,6.44716 h -17.22324 c -3.57194,0 -6.44767,-2.87522 -6.44767,-6.44716 v -15.76855 c 0,-3.57194 2.87573,-6.44716 6.44767,-6.44716 z M 54.115852,-149.90745 H 71.33909 c 3.571939,0 6.447669,2.87522 6.447669,6.44715 v 15.76856 c 0,3.57194 -2.87573,6.44716 -6.447669,6.44716 H 54.115852 c -3.571938,0 -6.447669,-2.87522 -6.447669,-6.44716 v -15.76856 c 0,-3.57193 2.875731,-6.44715 6.447669,-6.44715 z m 30.903022,0 h 17.223756 c 3.57194,0 6.44715,2.87522 6.44715,6.44715 v 15.76856 c 0,3.57194 -2.87521,6.44716 -6.44715,6.44716 H 85.018874 c -3.571938,0 -6.447152,-2.87522 -6.447152,-6.44716 v -15.76856 c 0,-3.57193 2.875214,-6.44715 6.447152,-6.44715 z m 30.903536,0 h 17.22324 c 3.57193,0 6.44767,2.87522 6.44767,6.44715 v 15.76856 c 0,3.57194 -2.87574,6.44716 -6.44767,6.44716 h -17.22324 c -3.57193,0 -6.44766,-2.87522 -6.44766,-6.44716 v -15.76856 c 0,-3.57193 2.87573,-6.44715 6.44766,-6.44715 z m 30.90303,0 h 17.22323 c 3.57195,0 6.44767,2.87522 6.44767,6.44715 v 15.76856 c 0,3.57194 -2.87572,6.44716 -6.44767,6.44716 h -17.22323 c -3.57194,0 -6.44767,-2.87522 -6.44767,-6.44716 v -15.76856 c 0,-3.57193 2.87573,-6.44715 6.44767,-6.44715 z m 30.90354,0 h 17.22323 c 3.57194,0 6.44767,2.87522 6.44767,6.44715 v 15.76856 c 0,3.57194 -2.87573,6.44716 -6.44767,6.44716 h -17.22323 c -3.57194,0 -6.44767,-2.87522 -6.44767,-6.44716 v -15.76856 c 0,-3.57193 2.87573,-6.44715 6.44767,-6.44715 z m 30.90302,0 h 17.22324 c 3.57194,0 6.44767,2.87522 6.44767,6.44715 v 15.76856 c 0,3.57194 -2.87573,6.44716 -6.44767,6.44716 H 208.632 c -3.57194,0 -6.44767,-2.87522 -6.44767,-6.44716 v -15.76856 c 0,-3.57193 2.87573,-6.44715 6.44767,-6.44715 z m 30.90354,0 h 17.22324 c 3.57194,0 6.44766,2.87522 6.44766,6.44715 v 15.76856 c 0,3.57194 -2.87572,6.44716 -6.44766,6.44716 h -17.22324 c -3.57194,0 -6.44767,-2.87522 -6.44767,-6.44716 v -15.76856 c 0,-3.57193 2.87573,-6.44715 6.44767,-6.44715 z m 30.90302,0 h 17.22324 c 3.57194,0 6.44767,2.87522 6.44767,6.44715 v 15.76856 c 0,3.57194 -2.87573,6.44716 -6.44767,6.44716 h -17.22324 c -3.57194,0 -6.44767,-2.87522 -6.44767,-6.44716 v -15.76856 c 0,-3.57193 2.87573,-6.44715 6.44767,-6.44715 z"
       id="rect895"
       inkscape:connector-curvature="0" />
  </g>
  <g
     inkscape:groupmode="layer"
     id="layer2"
     inkscape:label="Izenburua"
     style="display:inline"
     sodipodi:insensitive="true">
    <text
       xml:space="preserve"
       style="font-style:normal;font-variant:normal;font-weight:normal;font-stretch:normal;font-size:32.5749588px;line-height:1.25;font-family:'Euskal Font';-inkscape-font-specification:'Euskal Font';text-align:center;letter-spacing:3.43563986px;word-spacing:0px;text-anchor:middle;fill:#1b1b1b;fill-opacity:1;stroke:#1b1b1b;stroke-width:1.09957218;stroke-miterlimit:4;stroke-dasharray:none;stroke-opacity:1;filter:url(#filter851)"
       x="181.39116"
       y="-161.9933"
       id="text861"
       transform="rotate(-3.4472546,3469.1514,878.52702)"><tspan
         sodipodi:role="line"
         id="tspan857"
         x="183.10898"
         y="-161.9933"
         style="font-style:normal;font-variant:normal;font-weight:normal;font-stretch:normal;font-family:'Euskal Font';-inkscape-font-specification:'Euskal Font';fill:#1b1b1b;fill-opacity:1;stroke:#1b1b1b;stroke-width:1.09957218;stroke-miterlimit:4;stroke-dasharray:none;stroke-opacity:1">EUsKAL</tspan><tspan
         sodipodi:role="line"
         x="183.10898"
         y="-121.2746"
         style="font-style:normal;font-variant:normal;font-weight:normal;font-stretch:normal;font-family:'Euskal Font';-inkscape-font-specification:'Euskal Font';fill:#1b1b1b;fill-opacity:1;stroke:#1b1b1b;stroke-width:1.09957218;stroke-miterlimit:4;stroke-dasharray:none;stroke-opacity:1"
         id="tspan859">KAMIsETAK</tspan></text>
    <text
       transform="rotate(-3.4472546,3469.1514,878.52702)"
       id="text845"
       y="-161.9933"
       x="181.39116"
       style="font-style:normal;font-variant:normal;font-weight:normal;font-stretch:normal;font-size:32.5749588px;line-height:1.25;font-family:'Euskal Font';-inkscape-font-specification:'Euskal Font';text-align:center;letter-spacing:3.43563986px;word-spacing:0px;text-anchor:middle;fill:#1b1b1b;fill-opacity:1;stroke:#1b1b1b;stroke-width:1.09957218;stroke-miterlimit:4;stroke-dasharray:none;stroke-opacity:1;filter:url(#filter851)"
       xml:space="preserve"><tspan
         style="font-style:normal;font-variant:normal;font-weight:normal;font-stretch:normal;font-family:'Euskal Font';-inkscape-font-specification:'Euskal Font';fill:#1b1b1b;fill-opacity:1;stroke:#1b1b1b;stroke-width:1.09957218;stroke-miterlimit:4;stroke-dasharray:none;stroke-opacity:1"
         y="-161.9933"
         x="183.10898"
         id="tspan841"
         sodipodi:role="line">EUsKAL</tspan><tspan
         id="tspan843"
         style="font-style:normal;font-variant:normal;font-weight:normal;font-stretch:normal;font-family:'Euskal Font';-inkscape-font-specification:'Euskal Font';fill:#1b1b1b;fill-opacity:1;stroke:#1b1b1b;stroke-width:1.09957218;stroke-miterlimit:4;stroke-dasharray:none;stroke-opacity:1"
         y="-121.2746"
         x="183.10898"
         sodipodi:role="line">KAMIsETAK</tspan></text>
    <text
       xml:space="preserve"
       style="font-style:normal;font-variant:normal;font-weight:normal;font-stretch:normal;font-size:32.5749588px;line-height:1.25;font-family:'Euskal Font';-inkscape-font-specification:'Euskal Font';text-align:center;letter-spacing:3.43563986px;word-spacing:0px;text-anchor:middle;fill:#000000;fill-opacity:1;stroke:#fafafa;stroke-width:1.09957218;stroke-miterlimit:4;stroke-dasharray:none;stroke-opacity:1"
       x="121.29566"
       y="43.895874"
       id="text1005"
       transform="rotate(-3.4472546)"><tspan
         sodipodi:role="line"
         id="tspan1003"
         x="123.01349"
         y="43.895874"
         style="font-style:normal;font-variant:normal;font-weight:normal;font-stretch:normal;font-family:'Euskal Font';-inkscape-font-specification:'Euskal Font';fill:#000000;fill-opacity:1;stroke:#fafafa;stroke-width:1.09957218;stroke-miterlimit:4;stroke-dasharray:none;stroke-opacity:1">EUsKAL</tspan><tspan
         sodipodi:role="line"
         x="123.01348"
         y="84.614571"
         style="font-style:normal;font-variant:normal;font-weight:normal;font-stretch:normal;font-family:'Euskal Font';-inkscape-font-specification:'Euskal Font';fill:#000000;fill-opacity:1;stroke:#fafafa;stroke-width:1.09957218;stroke-miterlimit:4;stroke-dasharray:none;stroke-opacity:1"
         id="tspan1007">KAMIsETAK</tspan></text>
  </g>
</svg>
